<?xml version="1.0" encoding="UTF-8"?>
<svg width="17px" height="17px" viewBox="0 0 17 17" version="1.1" xmlns="http://www.w3.org/2000/svg" xmlns:xlink="http://www.w3.org/1999/xlink">
    <!-- Generator: Sketch 64 (93537) - https://sketch.com -->
    <title>faq@3x</title>
    <desc>Created with Sketch.</desc>
    <defs>
        <path d="M14.483,12.7003913 L13.283,11.5003913 C13.2030167,11.4199219 13.1717936,11.3030254 13.201,11.1933913 C13.2305707,11.0836691 13.3162778,10.997962 13.426,10.9683913 C13.5356341,10.9389726 13.6526365,10.970224 13.733,11.0503913 L14.841,12.1583913 C15.5389573,10.9821149 15.9062254,9.63915061 15.9040111,8.27139129 C15.9063415,6.90208803 15.5383531,5.55763475 14.839,4.38039129 L12.461,6.75939129 C12.6362464,7.24420699 12.7255852,7.75587484 12.725,8.27139129 C12.7254702,9.90082085 11.8355431,11.4002713 10.405,12.1803913 L12.705,14.4803913 C13.3915659,13.9889253 13.9923062,13.3875093 14.483,12.7003913 Z M2.056,3.83339129 L4.356,6.13339129 C4.76645604,5.38375027 5.38312806,4.76742528 6.133,4.35739129 L3.833,2.05739129 C3.14745774,2.54780992 2.54741863,3.14784903 2.057,3.83339129 L2.056,3.83339129 Z M1.7,4.37739129 C1.00096968,5.5547718 0.633006113,6.89913446 0.63499194,8.26839129 C0.633006113,9.63764812 1.00096968,10.9820108 1.7,12.1593913 L4.078,9.78039129 C3.90295556,9.29517571 3.81362476,8.78321546 3.814,8.26739129 C3.81350267,7.7515566 3.90283713,7.23957542 4.078,6.75439129 L1.699,4.37539129 L1.7,4.37739129 Z M4.376,1.70139129 L6.755,4.08039129 C7.23986304,3.90532301 7.75149937,3.81598969 8.267,3.81639129 C8.78283644,3.81587358 9.29482112,3.90520865 9.78,4.08039129 L12.159,1.70139129 C10.9813278,1.00218715 9.63659612,0.634217159 8.267,0.636381711 C6.89774317,0.634397403 5.55338051,1.00236097 4.376,1.70139129 L4.376,1.70139129 Z M12.158,14.8363913 L9.779,12.4573913 C9.29380537,12.6325146 8.78183118,12.7218479 8.266,12.7213913 C7.75016005,12.7219498 7.23816837,12.6326135 6.753,12.4573913 L4.374,14.8363913 C5.55167221,15.5355954 6.89640388,15.9035654 8.266,15.9014009 C9.63525683,15.9033852 10.9796195,15.5354216 12.157,14.8363913 L12.158,14.8363913 Z M2.058,12.7043913 C2.54847441,13.3898863 3.14850503,13.9899169 3.834,14.4803913 L6.134,12.1803913 C5.38402374,11.7700425 4.76734879,11.1533675 4.357,10.4033913 L2.057,12.7033913 L2.058,12.7043913 Z M14.482,3.83339129 C13.9915814,3.14784903 13.3915423,2.54780992 12.706,2.05739129 L10.406,4.35739129 C11.155641,4.76784732 11.771966,5.38451935 12.182,6.13439129 L14.482,3.83439129 L14.482,3.83339129 Z M8.268,0.000391229341 C10.4609832,0.000126052456 12.5642383,0.871099315 14.1150053,2.42167884 C15.6657724,3.97225837 16.537,6.07540808 16.537,8.26839129 C16.537,10.4613745 15.6657724,12.5645242 14.1150053,14.1151037 C12.5642383,15.6656833 10.4609832,16.5366565 8.268,16.5363914 C3.70170969,16.5363914 0,12.8346816 0,8.26839129 C0,6.07558135 0.871090356,3.9725832 2.42164113,2.42203242 C3.97219191,0.871481646 6.07519006,0.000391229341 8.268,0.000391229341 Z M8.268,4.45239129 C6.16048139,4.45239129 4.452,6.16087268 4.452,8.26839129 C4.452,10.3759099 6.16048139,12.0843913 8.268,12.0843913 C10.3755186,12.0843913 12.084,10.3759099 12.084,8.26839129 C12.084,6.16087268 10.3755186,4.45239129 8.268,4.45239129 L8.268,4.45239129 Z M15.977,13.7863913 C16.0911147,13.653148 16.2915769,13.6374869 16.425,13.7513913 C16.5582433,13.865506 16.5739044,14.0659682 16.46,14.1993913 L14.552,16.4253913 C14.4378853,16.5586346 14.2374231,16.5742957 14.104,16.4603913 C13.9707567,16.3462766 13.9550956,16.1458144 14.069,16.0123913 L15.977,13.7863913 L15.977,13.7863913 Z M0.077,14.1993913 C-0.0369043859,14.0659682 -0.0212432756,13.865506 0.112,13.7513913 C0.2454231,13.6374869 0.445885311,13.653148 0.56,13.7863913 L2.468,16.0123913 C2.54192071,16.0988429 2.56403682,16.2181936 2.526,16.3253913 C2.48818204,16.4327214 2.39589392,16.5116621 2.284,16.5323913 C2.17224168,16.5532221 2.05786396,16.5128087 1.984,16.4263913 L0.076,14.2003913 L0.077,14.1993913 Z M15.977,2.75039129 L14.069,0.52439129 C13.9550956,0.39096819 13.9707567,0.190505979 14.104,0.0763912899 C14.2374231,-0.037513096 14.4378853,-0.0218519857 14.552,0.11139129 L16.46,2.33739129 C16.5339207,2.42384288 16.5560368,2.54319357 16.518,2.65039129 C16.480182,2.7577214 16.3878939,2.83666206 16.276,2.85739129 C16.1645669,2.87784329 16.0506683,2.83746451 15.977,2.75139129 L15.977,2.75039129 Z M0.077,2.33739129 L1.985,0.11139129 C2.05886396,0.0249739193 2.17324168,-0.0154395422 2.285,0.0053912899 C2.39689392,0.0261205189 2.48918204,0.105061184 2.527,0.21239129 C2.56503682,0.319589006 2.54292071,0.438939697 2.469,0.52539129 L0.561,2.75139129 C0.446885311,2.88463457 0.2464231,2.90029568 0.113,2.78639129 C-0.0202432756,2.6722766 -0.0359043859,2.47181439 0.078,2.33839129 L0.077,2.33739129 Z" id="path-1"></path>
    </defs>
    <g id="Support" stroke="none" stroke-width="1" fill="none" fill-rule="evenodd">
        <g id="6.0" transform="translate(-58.000000, -450.000000)">
            <g id="Faq" transform="translate(37.000000, 426.000000)">
                <g id="faq" transform="translate(21.000000, 23.999609)">
                    <mask id="mask-2" fill="white">
                        <use xlink:href="#path-1"></use>
                    </mask>
                    <use id="Path_21698" fill="#000000" fill-rule="evenodd" xlink:href="#path-1"></use>
                </g>
            </g>
        </g>
    </g>
</svg>