<?xml version="1.0" encoding="UTF-8"?>
<svg width="17px" height="18px" viewBox="0 0 17 18" version="1.1" xmlns="http://www.w3.org/2000/svg" xmlns:xlink="http://www.w3.org/1999/xlink">
    <!-- Generator: Sketch 64 (93537) - https://sketch.com -->
    <title>ic_support@3x</title>
    <desc>Created with Sketch.</desc>
    <defs>
        <path d="M3.45800289,6.918 L3.45800289,10.035 C3.45474551,10.2240723 3.30110028,10.3759413 3.11200289,10.377 C3.02060779,10.378069 2.93258761,10.3425095 2.86758243,10.2782558 C2.80257725,10.2140021 2.76599664,10.1264014 2.76600289,10.035 L2.76600289,11.761 L3.10800289,11.761 C3.29913968,11.7620698 3.4542831,11.9158796 3.45700289,12.107 C3.45843549,12.1994673 3.42236021,12.2885732 3.35700289,12.354 C3.29126869,12.419511 3.20179381,12.4555896 3.10900289,12.454 L1.72900289,12.454 C1.2703729,12.4547975 0.830283183,12.2730289 0.50588852,11.9488219 C0.181493858,11.6246149 -0.000529237575,11.1846304 1.44471008e-06,10.726 L1.44471008e-06,8.649 C-0.00105561348,7.82675682 0.578061924,7.11792365 1.38400289,6.955 L1.38400289,6.918 C1.38347239,5.08358951 2.11174883,3.32411556 3.40859164,2.02671013 C4.70543445,0.729304695 6.46459234,0.000265164842 8.29900289,7.10542736e-15 C12.1180806,0.00110278294 15.2142436,3.09592309 15.2170029,6.915 L15.2170029,6.952 C16.0229439,7.11492365 16.6020614,7.82375682 16.6010104,8.646 L16.6010104,10.723 C16.6034369,11.5524485 16.0155262,12.26634 15.2010029,12.423 C15.0760029,13.955 14.0730029,15.994 12.5310029,16.379 C11.8109364,16.5524996 11.0715148,16.6324916 10.3310029,16.617 C10.1604988,17.4157374 9.45573412,17.9872133 8.63900289,17.989003 L7.94900289,17.989003 C7.49013527,17.9898596 7.04976834,17.8081722 6.72500289,17.484 C6.40037048,17.1594608 6.21829822,16.7190331 6.21900289,16.26 C6.22120431,15.3056228 6.99462457,14.5326496 7.94900289,14.531 L8.63900289,14.531 C9.46675686,14.5285024 10.1798778,15.1136811 10.3390029,15.926 C11.019831,15.9402362 11.6996833,15.8673109 12.3620029,15.709 C13.6120029,15.397 14.3720029,13.652 14.5020029,12.456 L13.1380029,12.456 L13.1380029,6.922 L14.5220029,6.922 L14.5220029,6.922 C14.5192438,3.48510413 11.7328997,0.700102585 8.29600289,0.699 C6.64512221,0.69846949 5.06166117,1.35383899 3.89403091,2.52090663 C2.72640065,3.68797426 2.07026805,5.27111926 2.07000289,6.922 L2.07000289,6.922 L3.45800289,6.918 Z M4.85800289,4.037 C4.79650501,4.10521469 4.7104091,4.14617979 4.61868536,4.15086914 C4.52696163,4.1555585 4.43713687,4.12358729 4.36900289,4.062 C4.30078821,4.00050212 4.2598231,3.91440621 4.25513375,3.82268247 C4.2504444,3.73095874 4.2824156,3.64113398 4.34400289,3.573 C5.32621559,2.40390317 6.77506833,1.72889447 8.30200289,1.72899984 C9.82899845,1.72861903 11.2779618,2.40367929 12.2600029,3.573 C12.342753,3.6650678 12.3701892,3.79424659 12.3320029,3.912 C12.2939703,4.02971602 12.1959838,4.11817074 12.0750029,4.144 C11.9540967,4.16965626 11.8286865,4.12886938 11.7460029,4.037 C10.8951433,3.01348784 9.63299463,2.42162659 8.30200289,2.422 C6.97050669,2.42092433 5.70758941,3.01243578 4.85600289,4.036 L4.85800289,4.037 Z M6.91800096,16.257 C6.91747061,16.5324576 7.02666007,16.7967863 7.22143833,16.9915646 C7.4162166,17.1863428 7.68054534,17.2955323 7.95600289,17.2950019 L8.64600289,17.2950019 C9.21859056,17.2933523 9.68235515,16.8295877 9.68400483,16.257 C9.68453518,15.9815424 9.57534572,15.7172137 9.38056745,15.5224354 C9.18578919,15.3276572 8.92146044,15.2184677 8.64600289,15.2189981 L7.95600289,15.2189981 C7.38341523,15.2206477 6.91965064,15.6844123 6.91800096,16.257 L6.91800096,16.257 Z M15.9110029,8.646 C15.9125174,8.37118806 15.8045706,8.10707806 15.6110029,7.912 C15.4159248,7.71843232 15.1518148,7.61048545 14.8770029,7.61198428 L13.8390029,7.61198428 L13.8390029,11.7630078 L14.8770029,11.7630078 C15.1524498,11.7640667 15.4169375,11.6551864 15.6118032,11.4605084 C15.8066689,11.2658305 15.9158041,11.0014478 15.9150073,10.726 L15.9150073,8.649 L15.9110029,8.646 Z M0.692002893,8.646 L0.692002893,10.723 C0.690488344,10.9978119 0.798435209,11.2619219 0.992002893,11.457 C1.18708095,11.6505677 1.45119095,11.7585145 1.72600289,11.7570157 L2.76400289,11.7570157 L2.76400289,7.606 L1.72600289,7.606 C1.45063532,7.606 1.18661844,7.71572721 0.99237392,7.91091011 C0.798129397,8.10609301 0.689672615,8.37063564 0.690990799,8.646 L0.692002893,8.646 Z" id="path-1"></path>
    </defs>
    <g id="Support" stroke="none" stroke-width="1" fill="none" fill-rule="evenodd">
        <g id="6.0" transform="translate(-58.000000, -376.000000)">
            <g id="Online-support" transform="translate(37.000000, 353.000000)">
                <g id="ic_support" transform="translate(21.000997, 23.000000)">
                    <mask id="mask-2" fill="white">
                        <use xlink:href="#path-1"></use>
                    </mask>
                    <use id="Path_21512" fill="#000000" fill-rule="evenodd" xlink:href="#path-1"></use>
                </g>
            </g>
        </g>
    </g>
</svg>