<?xml version="1.0" encoding="UTF-8"?>
<svg width="33px" height="33px" viewBox="0 0 33 33" version="1.1" xmlns="http://www.w3.org/2000/svg" xmlns:xlink="http://www.w3.org/1999/xlink">
    <title>Georgian_flag@3x</title>
    <defs>
        <circle id="path-1" cx="16.5" cy="16.5" r="16.5"></circle>
    </defs>
    <g id="1.-Welcome" stroke="none" stroke-width="1" fill="none" fill-rule="evenodd">
        <g id="1.1-Choose-Language" transform="translate(-27.000000, -410.000000)">
            <g id="languages" transform="translate(26.000000, 130.000000)">
                <g id="language-6" transform="translate(0.000000, 280.000000)">
                    <g id="Georgian_flag" transform="translate(1.000000, 0.000000)">
                        <mask id="mask-2" fill="white">
                            <use xlink:href="#path-1"></use>
                        </mask>
                        <use id="Mask" fill="#FFFFFF" xlink:href="#path-1"></use>
                        <g id="georgian_flag" mask="url(#mask-2)" fill="#ED1C24" fill-rule="nonzero">
                            <g transform="translate(-8.000000, 0.000000)">
                                <polygon id="Path_72" points="48.687 12.983 27.566 12.983 27.566 0 21.121 0 21.121 12.983 0 12.983 0 19.475 21.121 19.475 21.121 32.458 27.566 32.458 27.566 19.475 48.687 19.475"></polygon>
                                <path d="M41.304,6.492 C41.304,6.116 41.351,5.692 41.351,5.316 C40.5736647,5.4590667 39.7881235,5.55325148 38.999,5.598 C39.0430901,4.80891899 39.1366068,4.02337826 39.279,3.246 C38.9040104,3.28513234 38.5269446,3.30082951 38.15,3.293 C37.774,3.293 37.35,3.246 36.974,3.246 C37.1170693,4.02333493 37.2112541,4.8088763 37.256,5.598 C36.4671259,5.55045248 35.6817546,5.45628807 34.904,5.316 C34.9440935,5.70664214 34.9597906,6.09940415 34.951,6.492 C34.951,6.868 34.904,7.292 34.904,7.668 C35.6813353,7.5249333 36.4668765,7.43074852 37.256,7.386 C37.2112489,8.17512324 37.1170641,8.96066429 36.974,9.738 C37.3646421,9.69790649 37.7574042,9.68220937 38.15,9.691 C38.526,9.691 38.95,9.738 39.326,9.738 C39.1829359,8.96066429 39.0887511,8.17512324 39.044,7.386 C39.8331235,7.43074852 40.6186647,7.5249333 41.396,7.668 C41.3419863,7.27817705 41.3112651,6.88548016 41.304,6.492 L41.304,6.492 Z" id="Path_73"></path>
                                <path d="M13.736,6.492 C13.736,6.116 13.783,5.692 13.783,5.316 C13.0056647,5.4590667 12.2201235,5.55325148 11.431,5.598 C11.4757485,4.80887653 11.5699333,4.02333532 11.713,3.246 C11.3223579,3.28609351 10.9295958,3.30179063 10.537,3.293 C10.161,3.293 9.737,3.246 9.361,3.246 C9.5040641,4.02333571 9.59824887,4.80887676 9.643,5.598 C8.85387653,5.55325148 8.06833532,5.4590667 7.291,5.316 C7.33109351,5.70664214 7.34679063,6.09940415 7.338,6.492 C7.338,6.868 7.291,7.292 7.291,7.668 C8.06833532,7.5249333 8.85387653,7.43074852 9.643,7.386 C9.59825148,8.17512347 9.5040667,8.96066468 9.361,9.738 C9.75164214,9.69790649 10.1444042,9.68220937 10.537,9.691 C10.913,9.691 11.337,9.738 11.713,9.738 C11.5699333,8.96066468 11.4757485,8.17512347 11.431,7.386 C12.2198743,7.43354519 13.0052457,7.52770962 13.783,7.668 C13.7438642,7.27729023 13.7281694,6.88458683 13.736,6.492 L13.736,6.492 Z" id="Path_74"></path>
                                <path d="M41.302,25.967 C41.302,25.591 41.349,25.167 41.349,24.791 C40.5716647,24.9340667 39.7861235,25.0282515 38.997,25.073 C39.0417433,24.2838761 39.1359281,23.4983345 39.279,22.721 C38.8883577,22.7610909 38.4955958,22.776788 38.103,22.768 C37.727,22.768 37.303,22.721 36.927,22.721 C37.0700693,23.4983349 37.1642541,24.2838763 37.209,25.073 C36.4201257,25.0254548 35.6347543,24.9312904 34.857,24.791 C34.8970909,25.1816423 34.912788,25.5744042 34.904,25.967 C34.904,26.343 34.857,26.767 34.857,27.143 C35.6343349,26.9999307 36.4198763,26.9057459 37.209,26.861 C37.1642541,27.6501237 37.0700693,28.4356651 36.927,29.213 C37.3176423,29.1729091 37.7104042,29.157212 38.103,29.166 C38.479,29.166 38.903,29.213 39.279,29.213 C39.1359281,28.4356655 39.0417433,27.6501239 38.997,26.861 C39.7861237,26.9057459 40.5716651,26.9999307 41.349,27.143 C41.349,26.767 41.302,26.343 41.302,25.967 Z" id="Path_75"></path>
                                <path d="M13.736,25.967 C13.736,25.591 13.783,25.167 13.783,24.791 C13.0056647,24.9340667 12.2201235,25.0282515 11.431,25.073 C11.4757485,24.2838765 11.5699333,23.4983353 11.713,22.721 C11.3223577,22.7610909 10.9295958,22.776788 10.537,22.768 C10.161,22.768 9.737,22.721 9.361,22.721 C9.50406929,23.4983349 9.5982541,24.2838763 9.643,25.073 C8.85387653,25.0282515 8.06833532,24.9340667 7.291,24.791 C7.33109351,25.1816421 7.34679063,25.5744042 7.338,25.967 C7.338,26.343 7.291,26.767 7.291,27.143 C8.06833493,26.9999307 8.8538763,26.9057459 9.643,26.861 C9.5982541,27.6501237 9.50406929,28.4356651 9.361,29.213 C9.75164233,29.1729091 10.1444042,29.157212 10.537,29.166 C10.913,29.166 11.337,29.213 11.713,29.213 C11.5699333,28.4356647 11.4757485,27.6501235 11.431,26.861 C12.2198743,26.9085452 13.0052457,27.0027096 13.783,27.143 C13.7438642,26.7522902 13.7281694,26.3595868 13.736,25.967 L13.736,25.967 Z" id="Path_76"></path>
                            </g>
                        </g>
                    </g>
                </g>
            </g>
        </g>
    </g>
</svg>