<?xml version="1.0" encoding="UTF-8"?>
<svg width="33px" height="33px" viewBox="0 0 33 33" version="1.1" xmlns="http://www.w3.org/2000/svg" xmlns:xlink="http://www.w3.org/1999/xlink">
    <title>USA_flag@3x</title>
    <defs>
        <circle id="path-1" cx="16.5" cy="16.5" r="16.5"></circle>
    </defs>
    <g id="1.-Welcome" stroke="none" stroke-width="1" fill="none" fill-rule="evenodd">
        <g id="1.1-Choose-Language" transform="translate(-27.000000, -130.000000)">
            <g id="languages" transform="translate(26.000000, 130.000000)">
                <g id="USA_flag" transform="translate(1.000000, 0.000000)">
                    <mask id="mask-2" fill="white">
                        <use xlink:href="#path-1"></use>
                    </mask>
                    <use id="Mask" fill="#D8D8D8" xlink:href="#path-1"></use>
                    <g mask="url(#mask-2)" fill-rule="nonzero">
                        <g transform="translate(-8.000000, 0.000000)">
                            <rect id="Rectangle_1" fill="#FFFFFF" x="0" y="23" width="49" height="3"></rect>
                            <rect id="Rectangle_2" fill="#FFFFFF" x="0" y="28" width="49" height="3"></rect>
                            <rect id="Rectangle_3" fill="#FFFFFF" x="25" y="12" width="24" height="3"></rect>
                            <polygon id="Path_19" fill="#FFFFFF" points="25 8.71445545 25 10 49 10 49 7 25 7"></polygon>
                            <rect id="Rectangle_4" fill="#FFFFFF" x="25" y="2" width="24" height="3"></rect>
                            <polygon id="Path_20" fill="#FFFFFF" points="0 18 0 21 49 21 49 18"></polygon>
                            <rect id="Rectangle_5" fill="#E30613" x="25" y="0" width="24" height="2"></rect>
                            <rect id="Rectangle_6" fill="#E30613" x="25" y="5" width="24" height="3"></rect>
                            <rect id="Rectangle_7" fill="#E30613" x="25" y="10" width="24" height="3"></rect>
                            <rect id="Rectangle_8" fill="#E30613" x="25" y="15" width="24" height="3"></rect>
                            <rect id="Rectangle_9" fill="#E30613" x="0" y="20" width="49" height="3"></rect>
                            <rect id="Rectangle_10" fill="#E30613" x="0" y="26" width="49" height="3"></rect>
                            <rect id="Rectangle_11" fill="#E30613" x="0" y="31" width="49" height="3"></rect>
                            <path d="M25,15.3118564 L25,0 L0,0 L0,18 L25,18 L25,15.3118564 Z M23.8925349,13.5939711 L23.4485234,13.2947132 L23.0045119,13.5939711 L23.0783429,12.9219352 L22.7081624,12.4735661 L23.2208778,12.3990105 L23.4464725,11.8046367 L23.6679655,12.402117 L24.1806809,12.4766726 L23.8105004,12.9250417 L23.8925349,13.5939711 Z M3.33059885,13.7430823 L3.55209188,13.145602 L3.77358491,13.7430823 L4.28630025,13.8176379 L3.91611977,14.266007 L3.98995078,14.9380429 L3.54593929,14.638785 L3.10192781,14.9380429 L3.17575882,14.266007 L2.73174733,13.8176379 L3.33059885,13.7430823 Z M5.02461034,12.4735661 L4.65442986,12.025197 L5.1671452,11.9506414 L5.38863823,11.3531611 L5.61013126,11.9506414 L6.1228466,12.025197 L5.75266612,12.4735661 L5.84495488,13.145602 L5.4009434,12.8463441 L4.95693191,13.145602 L5.02461034,12.4735661 Z M4.65442986,1.49732497 L5.1671452,1.42276937 L5.38863823,0.825289076 L5.61013126,1.42276937 L6.1228466,1.49732497 L5.75266612,2.0150722 L5.84495488,2.69228557 L5.4009434,2.31847207 L4.95590648,2.69228557 L5.02461034,2.01610769 L4.65442986,1.49732497 Z M9.02378999,1.41862739 L9.53650533,1.34614278 L9.75799836,0.748662486 L9.97949139,1.34614278 L10.4922067,1.42069838 L10.1220263,1.86906748 L10.1958573,2.54110338 L9.75184578,2.24184548 L9.30783429,2.54110338 L9.39294504,1.86389001 L9.02378999,1.41862739 Z M13.609516,1.5677386 L14.1222313,1.49318299 L14.3437244,0.895702698 L14.5652174,1.49318299 L15.0779327,1.5677386 L14.7077523,2.01610769 L14.7815833,2.68814359 L14.3375718,2.38888569 L13.90484,2.69228557 L13.978671,2.02024967 L13.609516,1.5677386 Z M18.195242,1.5677386 L18.7079573,1.49318299 L18.9294504,0.895702698 L19.1509434,1.49318299 L19.6636587,1.5677386 L19.2934783,2.01610769 L19.3806399,2.69228557 L18.9366284,2.39302767 L18.4926169,2.69228557 L18.5664479,2.02024967 L18.195242,1.5677386 Z M19.157096,5.00350918 L19.6698113,5.07806478 L19.2996308,5.52643387 L19.4472929,6.27302537 L19.0032814,5.97376747 L18.490566,6.27302537 L18.5602953,5.60202497 L18.1901148,5.15365587 L18.7028302,5.07910027 L18.9243232,4.48161997 L19.157096,5.00350918 Z M21.3012715,10.4584939 L21.8139869,10.5330495 L21.4438064,10.9814186 L21.5176374,11.6534545 L21.0736259,11.3541966 L20.6296144,11.6534545 L20.7136998,10.9762412 L20.3435193,10.5278721 L20.8562346,10.4533165 L21.0777276,9.85583616 L21.3012715,10.4584939 Z M21.597621,15.1637807 L21.1536095,14.8645228 L20.709598,15.1637807 L20.783429,14.4917448 L20.4132486,14.0433757 L20.9259639,13.9688201 L21.1474569,13.3713398 L21.36895,13.9688201 L21.8816653,14.0433757 L21.4376538,14.4917448 L21.597621,15.1637807 Z M16.790402,10.3839383 L17.3031173,10.4584939 L16.9329368,10.906863 L17.0067678,11.5788989 L16.5627564,11.279641 L16.050041,11.6534545 L16.123872,10.9814186 L15.7536916,10.5330495 L16.2664069,10.4584939 L16.4878999,9.86101363 L16.790402,10.3839383 Z M17.011895,15.1637807 L16.5678835,14.8645228 L16.0551682,15.1637807 L16.1289992,14.4917448 L15.7588187,14.0433757 L16.271534,13.9688201 L16.4930271,13.3713398 L16.7145201,13.9688201 L17.2272354,14.0433757 L16.930886,14.4917448 L17.011895,15.1637807 Z M12.2026251,10.3073117 L12.7153404,10.3818673 L12.34516,10.8996146 L12.418991,11.5716505 L11.9749795,11.2723926 L11.530968,11.5716505 L11.604799,10.8996146 L11.2346185,10.4512455 L11.7473339,10.3766899 L11.9688269,9.77920957 L12.2026251,10.3073117 Z M12.4241181,15.0125985 L11.9801066,14.7133406 L11.5360952,15.0125985 L11.6099262,14.3405626 L11.2397457,13.8921935 L11.752461,13.8176379 L11.9739541,13.2201576 L12.1954471,13.8176379 L12.7081624,13.8921935 L12.337982,14.3405626 L12.4241181,15.0125985 Z M8.06193601,4.63073117 L7.61792453,4.33147328 L7.10520919,4.63073117 L7.17801477,3.95869528 L6.804758,3.51032618 L7.31747334,3.43577058 L7.53896637,2.83829028 L7.76045939,3.43577058 L8.27317473,3.51032618 L7.90299426,3.95869528 L8.06193601,4.63073117 Z M9.53650533,4.85439798 L9.75799836,4.25691768 L9.97949139,4.85439798 L10.4922067,4.92895358 L10.1220263,5.37732267 L10.1958573,6.04935857 L9.75184578,5.75010067 L9.30783429,6.04935857 L9.3816653,5.37732267 L9.02378999,4.92998907 L9.53650533,4.85439798 Z M12.426169,4.55617557 L11.9821575,4.25691768 L11.538146,4.55617557 L11.611977,3.88413968 L11.2417966,3.43577058 L11.7545119,3.28665938 L11.9760049,2.68917908 L12.1974979,3.28665938 L12.7102133,3.36121498 L12.3400328,3.8789622 L12.426169,4.55617557 Z M17.011895,4.70528677 L16.5678835,4.40602888 L16.0551682,4.70528677 L16.1289992,4.03325088 L15.7588187,3.58488178 L16.271534,3.51032618 L16.4930271,2.91284588 L16.7893765,3.43059311 L17.3020919,3.50514871 L16.9319114,3.9535178 L17.011895,4.70528677 Z M14.645201,4.92895358 L15.1579163,5.00350918 L14.7877358,5.5212564 L14.8615669,6.1932923 L14.4226825,5.90231836 L13.978671,6.20157625 L13.978671,5.52746937 L13.609516,5.0739228 L14.1222313,4.9993672 L14.3437244,4.4018869 L14.645201,4.92895358 Z M14.8687449,9.70983144 L14.4247334,9.41057355 L13.9807219,9.70983144 L14.0484003,9.03779555 L13.6043888,8.52004832 L14.1171042,8.44549272 L14.3385972,7.84801243 L14.5600902,8.44549272 L15.0728056,8.52004832 L14.7026251,8.96841742 L14.8687449,9.70983144 Z M11.242822,6.87154116 L11.7555373,6.79698556 L11.9770304,6.19950526 L12.1985234,6.79698556 L12.7112387,6.87154116 L12.3410582,7.38928839 L12.4148893,8.06132428 L11.9821575,7.76620836 L11.538146,8.06546626 L11.611977,7.39343036 L11.242822,6.87154116 Z M9.53650533,8.36575965 L9.76312551,7.76620836 L9.98461854,8.36368866 L10.4973339,8.43824426 L10.1271534,8.88661336 L10.2009844,9.55864926 L9.83080394,9.25939136 L9.38679245,9.55864926 L9.46062346,8.88661336 L9.09044299,8.43824426 L9.53650533,8.36575965 Z M19.3734619,9.71190243 L18.9294504,9.41264454 L18.4854389,9.71190243 L18.5592699,9.03986654 L18.1890894,8.59149744 L18.7018048,8.51694184 L18.9232978,7.91946154 L19.1447908,8.51694184 L19.6575062,8.59149744 L19.2873257,9.03986654 L19.3734619,9.71190243 Z M17.011895,8.14105735 L16.5678835,7.84179946 L16.0551682,8.14105735 L16.1289992,7.46902146 L15.7588187,7.02065236 L16.271534,6.94609676 L16.5678835,6.27406086 L16.7893765,6.87154116 L17.3020919,6.94609676 L16.9319114,7.39446586 L17.011895,8.14105735 Z M21.597621,4.70528677 L21.1536095,4.40602888 L20.709598,4.70528677 L20.709598,4.03325088 L20.3394176,3.58488178 L20.8521329,3.51032618 L21.0736259,2.91284588 L21.2951189,3.51032618 L21.8078343,3.58488178 L21.4376538,4.03325088 L21.597621,4.70528677 Z M3.32854799,3.28665938 L3.55004102,2.69228557 L3.77153404,3.28976586 L4.28424938,3.36432146 L3.91406891,3.88206869 L3.9940525,4.55617557 L3.55004102,4.18236208 L3.03219852,4.55617557 L3.10602953,3.88413968 L2.80968007,3.36639245 L3.32854799,3.28665938 Z M5.17432322,4.92998907 L5.39581624,4.33250877 L5.61730927,4.92998907 L6.13002461,5.00454467 L5.75984413,5.45291377 L5.84495488,6.12494966 L5.4009434,5.82569177 L4.95693191,6.19950526 L5.02461034,5.52746937 L4.65442986,5.00972214 L5.17432322,4.92998907 Z M6.804758,6.94609676 L7.31747334,6.87154116 L7.53896637,6.27406086 L7.76045939,6.87154116 L8.27317473,6.94609676 L7.90299426,7.46384399 L7.97682527,8.13587988 L7.54409352,7.76620836 L7.10008203,8.06546626 L7.17801477,7.39446586 L6.804758,6.94609676 Z M5.17739951,8.36575965 L5.39889253,7.76620836 L5.62038556,8.36368866 L6.1331009,8.51279986 L5.76292043,8.96116896 L5.84495488,9.63009837 L5.4009434,9.33084048 L4.95590648,9.63009837 L5.02461034,8.96323995 L4.65442986,8.51487085 L5.17739951,8.36575965 Z M7.54409352,9.71190243 L7.76558655,10.3093827 L8.27830189,10.3839383 L7.90812141,10.9016856 L7.98195242,11.5737215 L7.53794094,11.2744636 L7.09392945,11.5737215 L7.16776046,10.9016856 L6.804758,10.4584939 L7.31747334,10.3839383 L7.54409352,9.71190243 Z M7.988105,15.0871541 L7.54409352,14.7878962 L7.10008203,15.0871541 L7.17391304,14.4151182 L6.80373257,13.9667491 L7.31644791,13.8921935 L7.53794094,13.2947132 L7.75943396,13.8921935 L8.2721493,13.9667491 L7.90196883,14.4151182 L7.988105,15.0871541 Z M9.39294504,12.3948685 L9.02378999,11.9506414 L9.53650533,11.8760858 L9.75799836,11.2786055 L9.97949139,11.8760858 L10.4922067,11.9506414 L10.1220263,12.3990105 L10.1958573,13.0710464 L9.75184578,12.7717885 L9.30783429,13.0710464 L9.39294504,12.3948685 Z M13.978671,12.5439798 L13.6084906,12.0956107 L14.1212059,12.0210551 L14.3426989,11.4235748 L14.564192,12.0210551 L15.0769073,12.0956107 L14.7067268,12.5439798 L14.7805578,13.2160156 L14.3365463,12.9167578 L13.8925349,13.2160156 L13.978671,12.5439798 Z M18.564397,12.5439798 L18.1942166,12.0956107 L18.7069319,12.0210551 L18.9284249,11.4235748 L19.149918,12.0210551 L19.6626333,12.0956107 L19.2924528,12.5439798 L19.3662838,13.2160156 L18.9222724,12.9167578 L18.4782609,13.2160156 L18.564397,12.5439798 Z M23.8894586,10.079503 L23.4454471,9.78024507 L23.0014356,10.079503 L23.0752666,9.40746707 L22.7050861,8.95909797 L23.2178015,8.88454237 L23.4392945,8.28706207 L23.6607875,8.88454237 L24.1735029,8.95909797 L23.8033224,9.40746707 L23.8894586,10.079503 Z M21.5965956,8.21561296 L21.1525841,7.91635506 L20.7085726,8.21561296 L20.7824036,7.54357706 L20.3383921,7.02582983 L20.8511075,6.95127423 L21.0726005,6.35379394 L21.2940935,6.95127423 L21.8068089,7.02582983 L21.4366284,7.47419893 L21.5965956,8.21561296 Z M23.6679655,5.37732267 L24.1806809,5.45187827 L23.8105004,5.90024737 L23.8843314,6.57228327 L23.4403199,6.27302537 L22.9963084,6.57228327 L23.0721903,5.90231836 L22.7020098,5.45394926 L23.2147252,5.37939366 L23.3623872,4.78191336 L23.6679655,5.37732267 Z M23.8925349,3.13651268 L23.4485234,2.83725479 L23.0045119,3.13651268 L23.0721903,2.46447679 L22.7020098,2.01610769 L23.2147252,1.94155209 L23.4362182,1.26951619 L23.6577112,1.86699649 L24.1704266,1.94155209 L23.8002461,2.38992119 L23.8925349,3.13651268 Z M0.591673503,1.41862739 L1.10438884,1.34407179 L1.33305989,0.746591497 L1.55455291,1.34407179 L2.06726825,1.41862739 L1.77502051,1.86389001 L1.84885152,2.5359259 L1.40484003,2.24080999 L0.892124692,2.54006788 L0.961853979,1.86389001 L0.591673503,1.41862739 Z M1.10438884,4.77984237 L1.33305989,4.18236208 L1.62940935,4.77984237 L2.14212469,4.85439798 L1.77194422,5.3721452 L1.84577523,6.0441811 L1.40484003,5.75113617 L0.892124692,6.05039406 L0.965955701,5.37835817 L0.591673503,4.92998907 L1.10438884,4.77984237 Z M2.80557834,6.87154116 L3.31829368,6.79698556 L3.53978671,6.19950526 L3.76127974,6.79698556 L4.27399508,6.87154116 L3.9038146,7.31991026 L3.97764561,7.99194615 L3.53363413,7.69268826 L3.08962264,7.99194615 L3.17883511,7.31991026 L2.80557834,6.87154116 Z M1.84577523,9.56072024 L1.40484003,9.26146235 L0.960828548,9.56072024 L1.03465956,8.88868435 L0.665504512,8.44031525 L1.17821985,8.36575965 L1.40484003,7.76620836 L1.62633306,8.36368866 L2.1390484,8.43824426 L1.76886792,8.88661336 L1.84577523,9.56072024 Z M3.55004102,9.63009837 L3.77153404,10.2275787 L4.28424938,10.3021343 L3.91406891,10.7505034 L3.98789992,11.4970949 L3.54388843,11.197837 L3.03117309,11.4970949 L3.1050041,10.825059 L2.73482363,10.3766899 L3.24753897,10.3021343 L3.55004102,9.63009837 Z M0.591673503,11.8760858 L1.10438884,11.8015302 L1.32588187,11.2040499 L1.55352748,11.8046367 L2.06624282,11.8791923 L1.69606235,12.3275614 L1.76989336,12.9995973 L1.33305989,12.6972329 L0.8890484,12.9964908 L0.962879409,12.3244549 L0.591673503,11.8760858 Z M1.84577523,16.506817 L1.40176374,16.2075591 L0.957752256,16.506817 L1.03158326,15.8347811 L0.661402789,15.386412 L1.17411813,15.3118564 L1.39561116,14.7143761 L1.61710418,15.3118564 L2.12981952,15.386412 L1.75963905,15.8347811 L1.84577523,16.506817 Z M5.84495488,16.6559282 L5.39889253,16.3608123 L4.95488105,16.6600702 L5.02871206,15.9880343 L4.65955701,15.5324167 L5.17227235,15.4578611 L5.39376538,14.8603808 L5.61525841,15.4578611 L6.12797375,15.5324167 L5.75779327,15.9807858 L5.84495488,16.6559282 Z M10.2830189,16.5813726 L9.83900738,16.2821147 L9.3949959,16.5813726 L9.46882691,15.9093367 L9.09864643,15.4609676 L9.61136177,15.386412 L9.8328548,14.7889317 L10.0543478,15.386412 L10.5670632,15.4609676 L10.1968827,15.9093367 L10.2830189,16.5813726 Z M14.8687449,16.6559282 L14.4247334,16.3566703 L13.9807219,16.6559282 L14.0484003,15.9838923 L13.6782199,15.5355232 L14.1909352,15.4609676 L14.4124282,14.8634873 L14.6339212,15.4609676 L15.1466366,15.5355232 L14.7026251,15.9838923 L14.8687449,16.6559282 Z M19.3806399,16.7304838 L18.9366284,16.4312259 L18.4926169,16.7304838 L18.5664479,16.0584479 L18.1962674,15.6100788 L18.7089828,15.5355232 L18.9304758,14.9380429 L19.1519688,15.5355232 L19.6646842,15.6100788 L19.2945037,16.0584479 L19.3806399,16.7304838 Z M23.8925349,17.1042973 L23.4485234,16.8050394 L23.0045119,17.1042973 L23.0783429,16.4322614 L22.7081624,15.9838923 L23.2208778,15.9093367 L23.4423708,15.3118564 L23.6638638,15.9093367 L24.1765792,15.9838923 L23.8063987,16.4322614 L23.8925349,17.1042973 Z" id="Path_21" fill="#2D2E83"></path>
                            <polygon id="Path_22" fill="#FFFFFF" points="5.2001385 3 5.5 2.59888889 5.7998615 3 5.75 2.27888889 6 1.72333333 5.65373961 1.64333333 5.49930748 1 5.34626039 1.64111111 5 1.72111111 5.25 2.27666667"></polygon>
                            <polygon id="Path_23" fill="#FFFFFF" points="5.2001385 6 5.5 5.61493333 5.7998615 5.9232 5.75 5.23093333 6 4.76906667 5.65373961 4.69226667 5.49930748 4 5.34626039 4.69226667 5 4.76906667 5.25 5.23093333"></polygon>
                            <polygon id="Path_24" fill="#FFFFFF" points="5.19735928 10 5.49826268 9.67888889 5.79916609 10 5.74913134 9.27888889 6 8.79777778 5.65253648 8.63777778 5.49756776 8 5.34746352 8.64111111 5 8.80111111 5.25086866 9.28222222"></polygon>
                            <polygon id="Path_25" fill="#FFFFFF" points="5.79902643 12.9966722 5.74895688 12.276761 6 11.7221298 5.65229485 11.6422629 5.49791377 11 5.34770515 11.6400444 5 11.7997781 5.25104312 12.2800887 5.20097357 13 5.50208623 12.6794232"></polygon>
                            <polygon id="Path_26" fill="#FFFFFF" points="5.64612188 15.6418242 5.49584488 15 5.34626039 15.6418242 5 15.7219132 5.25 16.2780868 5.2001385 17 5.5 16.5984427 5.7998615 17 5.75 16.2780868 6 15.7219132"></polygon>
                            <polygon id="Path_27" fill="#FFFFFF" points="7.65184156 3.64111111 7.50104239 3 7.34746352 3.64111111 7 3.80111111 7.25086866 4.28222222 7.20083391 5 7.50173732 4.67888889 7.84920083 5 7.74913134 4.27888889 8 3.72333333"></polygon>
                            <polygon id="Path_28" fill="#FFFFFF" points="7.20083391 8 7.50173732 7.59888889 7.84920083 8 7.74913134 7.27888889 8 6.72333333 7.65253648 6.64333333 7.50104239 6 7.34746352 6.64111111 7 6.72111111 7.25086866 7.27666667"></polygon>
                            <polygon id="Path_29" fill="#FFFFFF" points="7 10.7690667 7.25086866 11.2309333 7.20083391 12 7.50173732 11.6149333 7.84920083 12 7.74913134 11.2309333 8 10.7690667 7.65253648 10.6922667 7.50243224 10 7.34746352 10.6922667"></polygon>
                            <polygon id="Path_30" fill="#FFFFFF" points="7.64958449 13.6400444 7.5 13 7.34626039 13.6400444 7 13.7997781 7.25 14.2800887 7.2001385 15 7.5 14.6794232 7.7998615 15 7.75 14.2800887 8 13.7997781"></polygon>
                            <polygon id="Path_31" fill="#FFFFFF" points="9.38252813 3 10.0443415 2.67888889 10.6174719 3 10.5221707 2.27888889 11 1.72333333 10.3381866 1.64333333 10.049636 1 9.76373263 1.64111111 9 1.72111111 9.57313038 2.27666667"></polygon>
                            <polygon id="Path_32" fill="#FFFFFF" points="9.38252813 6 10.0443415 5.59888889 10.6174719 6 10.5221707 5.27888889 11 4.72333333 10.3381866 4.64333333 10.049636 4 9.66181337 4.64111111 9 4.72111111 9.57313038 5.27666667"></polygon>
                            <polygon id="Path_33" fill="#FFFFFF" points="9.38252813 10 10.0443415 9.67942318 10.6174719 10 10.5221707 9.28008874 11 8.79977815 10.3381866 8.71991126 10.0522833 8 9.66181337 8.72323905 9 8.80310593 9.47782925 9.28341653"></polygon>
                            <polygon id="Path_34" fill="#FFFFFF" points="10.6184818 12.9966777 10.5234323 12.2779623 11 11.7984496 10.339934 11.6389812 10.0547855 11 9.66006601 11.6423034 9 11.8017719 9.47656766 12.2812846 9.38151815 13 10.0415842 12.6799557"></polygon>
                            <polygon id="Path_35" fill="#FFFFFF" points="10.336863 15.6418242 10.0509596 15 9.66181337 15.6418242 9 15.7219132 9.47782925 16.2780868 9.38252813 17 10.0443415 16.6785317 10.6174719 17 10.5221707 16.2780868 11 15.7219132"></polygon>
                            <polygon id="Path_36" fill="#FFFFFF" points="11.6500347 3.64111111 11.4996535 3 11.3465003 3.64111111 11 3.80111111 11.2501733 4.28222222 11.2002772 5 11.5003465 4.67888889 11.7997228 5 11.7498267 4.27888889 12 3.79777778"></polygon>
                            <polygon id="Path_37" fill="#FFFFFF" points="11.2001385 8 11.5 7.67888889 11.7998615 8 11.75 7.27888889 12 6.72333333 11.6537396 6.64333333 11.4993075 6 11.3462604 6.64111111 11 6.72111111 11.25 7.27666667"></polygon>
                            <polygon id="Path_38" fill="#FFFFFF" points="11.3474635 10.6418242 11 10.7219132 11.2508687 11.2780868 11.1507992 12 11.4982627 11.5984427 11.7991661 12 11.7491313 11.2780868 12 10.7219132 11.6525365 10.6418242 11.5024322 10"></polygon>
                            <polygon id="Path_39" fill="#FFFFFF" points="12.3355394 13.6922667 12.049636 13 11.7637326 13.6922667 11 13.7690667 11.5731304 14.2309333 11.3825281 15 12.0443415 14.6149333 12.6174719 14.9232 12.5221707 14.2309333 13 13.7690667"></polygon>
                            <polygon id="Path_40" fill="#FFFFFF" points="13.377158 3 13.9521912 2.67888889 14.6162019 3 14.5205843 2.27888889 15 1.79777778 14.3359894 1.63777778 13.9508632 1 13.6640106 1.64111111 13 1.80111111 13.4794157 2.28222222"></polygon>
                            <polygon id="Path_41" fill="#FFFFFF" points="13.6618134 4.64004437 13 4.79977815 13.4778293 5.28008874 13.3825281 6 13.9556585 5.67942318 14.6174719 6 14.5221707 5.28008874 15 4.79977815 14.3381866 4.64004437 13.9543349 4"></polygon>
                            <polygon id="Path_42" fill="#FFFFFF" points="14.3302449 8.64182425 13.9477167 8 13.6618134 8.64182425 13 8.72191324 13.4778293 9.27808676 13.3825281 10 13.9556585 9.6785317 14.6174719 10 14.4268696 9.27808676 15 8.72191324"></polygon>
                            <polygon id="Path_43" fill="#FFFFFF" points="14.6169649 13 14.42611 12.2309333 15 11.7690667 14.2352551 11.6922667 13.9489728 11 13.6626905 11.6922667 13 11.7690667 13.4784626 12.3024 13.3830351 12.9946667 13.9569251 12.6096"></polygon>
                            <polygon id="Path_44" fill="#FFFFFF" points="14.2336201 15.6400444 13.9477167 15 13.6618134 15.6400444 13 15.7997781 13.4778293 16.2800887 13.3825281 17 13.9556585 16.6794232 14.6174719 17 14.4268696 16.2800887 15 15.7997781"></polygon>
                            <polygon id="Path_45" fill="#FFFFFF" points="16.3315685 3.69411765 16.0443415 3 15.6618134 3.69411765 15 3.77112299 15.4778293 4.30588235 15.3825281 5 16.0443415 4.61390374 16.6174719 5 16.5221707 4.22887701 17 3.7657754"></polygon>
                            <polygon id="Path_46" fill="#FFFFFF" points="17 6.79977815 16.3381866 6.64004437 16.0443415 6 15.6618134 6.71991126 15 6.79977815 15.4778293 7.28008874 15.3825281 8 16.0443415 7.67942318 16.6174719 8 16.5221707 7.28008874"></polygon>
                            <polygon id="Path_47" fill="#FFFFFF" points="15.6618134 10.6400444 15 10.7997781 15.4778293 11.2800887 15.3825281 12 16.0443415 11.6794232 16.6174719 12 16.5221707 11.2800887 17 10.7997781 16.3381866 10.6400444 15.9556585 10"></polygon>
                            <polygon id="Path_48" fill="#FFFFFF" points="16.3302449 13.6418242 15.9477167 13 15.6618134 13.6418242 15 13.7219132 15.4778293 14.2780868 15.3825281 15 15.9556585 14.6785317 16.6174719 15 16.5221707 14.2780868 17 13.7219132"></polygon>
                            <polygon id="Path_49" fill="#FFFFFF" points="18.1980474 3 18.5 2.67888889 18.848675 3 18.7482566 2.27888889 19 1.72333333 18.651325 1.64333333 18.4993026 1 18.348675 1.64111111 18 1.72111111 18.2517434 2.27666667"></polygon>
                            <polygon id="Path_50" fill="#FFFFFF" points="18.3474635 4.64182425 18 4.72191324 18.2508687 5.27808676 18.2008339 6 18.5017373 5.59844271 18.8492008 6 18.7491313 5.27808676 19 4.72191324 18.6525365 4.64182425 18.5010424 4"></polygon>
                            <polygon id="Path_51" fill="#FFFFFF" points="18.6454294 8.71991126 18.4958449 8 18.3462604 8.71991126 18 8.79977815 18.25 9.28008874 18.2001385 10 18.5 9.67942318 18.7998615 10 18.75 9.28008874 19 8.79977815"></polygon>
                            <polygon id="Path_52" fill="#FFFFFF" points="18.7981844 13 18.747905 12.2800887 19 11.7997781 18.650838 11.6400444 18.5 11 18.349162 11.6400444 18 11.7997781 18.252095 12.2800887 18.2018156 13 18.5041899 12.6794232"></polygon>
                            <polygon id="Path_53" fill="#FFFFFF" points="18.6454294 15.6418242 18.4958449 15 18.3462604 15.6418242 18 15.7219132 18.25 16.2780868 18.2001385 17 18.5 16.6785317 18.7998615 17 18.75 16.2780868 19 15.7219132"></polygon>
                            <polygon id="Path_54" fill="#FFFFFF" points="21.3302449 3.64004437 20.9477167 3 20.6618134 3.64004437 20 3.79977815 20.4778293 4.28008874 20.3825281 5 20.9556585 4.67942318 21.6174719 5 21.4268696 4.28008874 22 3.79977815"></polygon>
                            <polygon id="Path_55" fill="#FFFFFF" points="22 6.72191324 21.2357616 6.64182425 20.9483444 6 20.6622517 6.64182425 20 6.72191324 20.4781457 7.27808676 20.3827815 8 20.9562914 7.6785317 21.618543 8 21.4278146 7.27808676"></polygon>
                            <polygon id="Path_56" fill="#FFFFFF" points="20.3474635 10.6418242 20 10.7219132 20.2508687 11.2780868 20.2008339 12 20.5017373 11.5984427 20.8492008 12 20.7491313 11.2780868 21 10.7219132 20.6525365 10.6418242 20.5024322 10"></polygon>
                            <polygon id="Path_57" fill="#FFFFFF" points="20.647672 13.7199113 20.4975678 13 20.3474635 13.7199113 20 13.7997781 20.2508687 14.2800887 20.2008339 15 20.5017373 14.6794232 20.8492008 15 20.7491313 14.2800887 21 13.7997781"></polygon>
                            <polygon id="Path_58" fill="#FFFFFF" points="24 1.72191324 23.3381866 1.64182425 23.0443415 1 22.6618134 1.64182425 22 1.72191324 22.4778293 2.27808676 22.3825281 3 23.0443415 2.6785317 23.6174719 3 23.5221707 2.27808676"></polygon>
                            <polygon id="Path_59" fill="#FFFFFF" points="22.6618134 5.64182425 22 5.72191324 22.4778293 6.27808676 22.3825281 7 23.0443415 6.59844271 23.6174719 7 23.5221707 6.27808676 24 5.72191324 23.3381866 5.64182425 22.9543349 5"></polygon>
                            <polygon id="Path_60" fill="#FFFFFF" points="24 8.79977815 23.3355482 8.71991126 22.951495 8 22.6644518 8.71991126 22 8.79977815 22.4797342 9.28008874 22.3840532 10 22.9594684 9.67942318 23.6239203 10 23.5282392 9.28008874"></polygon>
                            <polygon id="Path_61" fill="#FFFFFF" points="24 12.7997781 23.3355482 12.6400444 22.951495 12 22.6644518 12.6400444 22 12.7997781 22.4797342 13.2800887 22.3840532 14 22.9594684 13.6794232 23.6239203 14 23.5282392 13.2800887"></polygon>
                            <polygon id="Path_62" fill="#FFFFFF" points="23.3302449 15.6418242 22.9477167 15 22.6618134 15.6418242 22 15.7219132 22.4778293 16.2780868 22.3825281 17 22.9556585 16.6785317 23.6174719 17 23.5221707 16.2780868 24 15.7219132"></polygon>
                            <polygon id="Path_63" fill="#FFFFFF" points="0.382528127 3 1.0443415 2.67888889 1.61747187 3 1.52217075 2.27888889 2 1.79777778 1.33818663 1.71777778 1.049636 1 0.661813369 1.72111111 0 1.80111111 0.573130377 2.28222222"></polygon>
                            <polygon id="Path_64" fill="#FFFFFF" points="0.476567657 5.28222222 0.381518152 6 1.04158416 5.67888889 1.61848185 6 1.52343234 5.27888889 2 4.79777778 1.33993399 4.63777778 1.04686469 4 0.660066007 4.64111111 0 4.80111111"></polygon>
                            <polygon id="Path_65" fill="#FFFFFF" points="1.3315685 8.64182425 1.0443415 8 0.661813369 8.64182425 0 8.72191324 0.477829252 9.27808676 0.382528127 10 1.0443415 9.6785317 1.61747187 10 1.52217075 9.27808676 2 8.72191324"></polygon>
                            <polygon id="Path_66" fill="#FFFFFF" points="0.377158035 13 1.04116866 12.5988889 1.61620186 13 1.52058433 12.2788889 2 11.7233333 1.33598938 11.6433333 0.950863214 11 0.664010624 11.6411111 0 11.7211111 0.479415671 12.2766667"></polygon>
                            <polygon id="Path_67" fill="#FFFFFF" points="1.33112583 14.7211111 0.948344371 14 0.662251656 14.7211111 0 14.8011111 0.478145695 15.2822222 0.37615894 16 1.0384106 15.6788889 1.61721854 16 1.5218543 15.2788889 2 14.7977778"></polygon>
                            <polygon id="Path_68" fill="#FFFFFF" points="3.14968815 5 3.4961885 4.59888889 3.7997228 5 3.74982675 4.27888889 4 3.72333333 3.65349965 3.64333333 3.4996535 3 3.34650035 3.64111111 3 3.72111111 3.25017325 4.27666667"></polygon>
                            <polygon id="Path_69" fill="#FFFFFF" points="3.15020862 8 3.49791377 7.67888889 3.79902643 8 3.74895688 7.27888889 4 6.79777778 3.65229485 6.71777778 3.50139082 6 3.34770515 6.72111111 3 6.80111111 3.25104312 7.28222222"></polygon>
                            <polygon id="Path_70" fill="#FFFFFF" points="2 10.7997781 2.57313038 11.2800887 2.38252813 12 3.0443415 11.6794232 3.61747187 12 3.52217075 11.2800887 4 10.7997781 3.33818663 10.6400444 3.049636 10 2.76373263 10.6400444"></polygon>
                            <polygon id="Path_71" fill="#FFFFFF" points="2.38151815 15 3.04158416 14.6788889 3.61848185 15 3.52343234 14.2788889 4 13.7233333 3.33993399 13.6433333 3.04686469 13 2.76171617 13.6411111 2 13.7211111 2.57161716 14.2766667"></polygon>
                        </g>
                    </g>
                </g>
            </g>
        </g>
    </g>
</svg>