<?xml version="1.0" encoding="UTF-8"?>
<svg width="32px" height="32px" viewBox="0 0 32 32" version="1.1" xmlns="http://www.w3.org/2000/svg" xmlns:xlink="http://www.w3.org/1999/xlink">
    <!-- Generator: Sketch 64 (93537) - https://sketch.com -->
    <title>camera upload@3x</title>
    <desc>Created with Sketch.</desc>
    <g id="Profile" stroke="none" stroke-width="1" fill="none" fill-rule="evenodd">
        <g id="3.4" transform="translate(-208.000000, -210.000000)">
            <g id="camera-upload" transform="translate(208.000000, 210.000000)">
                <circle id="Oval" stroke="#000000" stroke-width="0.3" fill="#FFFFFF" cx="16" cy="16" r="15.85"></circle>
                <g id="camera-icon" transform="translate(10.000000, 11.000000)" fill="#000000" fill-rule="nonzero">
                    <path d="M1.3554878,0.833333333 L2.62378049,0.833333333 C2.666155,0.834435877 2.70712239,0.818066871 2.73709581,0.788056853 C2.76706923,0.758046834 2.78341827,0.717029426 2.78231707,0.674603175 C2.78231707,0.586938929 2.71133783,0.515873016 2.62378049,0.515873016 L1.3554878,0.515873016 C1.26793047,0.515873016 1.19695122,0.586938929 1.19695122,0.674603175 C1.19585002,0.717029426 1.21219906,0.758046834 1.24217248,0.788056853 C1.27214591,0.818066871 1.31311329,0.834435877 1.3554878,0.833333333 L1.3554878,0.833333333 Z M12.0012195,1.78571429 L9.75792683,1.78571429 L8.6125,0.0714285714 C8.58348771,0.0273141787 8.53445919,0.000538696153 8.48170732,5.63922806e-16 L4.51829268,5.63922806e-16 C4.46554081,0.000538696153 4.41651229,0.0273141787 4.3875,0.0714285714 L3.24603659,1.78571429 L0.998780488,1.78571429 C0.447169256,1.78571429 0,2.23342954 0,2.78571429 L0,8.99603175 C0,9.5483165 0.447169256,9.99603175 0.998780488,9.99603175 L12.0012195,9.99603175 C12.5528307,9.99603175 13,9.5483165 13,8.99603175 L13,2.78571429 C13,2.23342954 12.5528307,1.78571429 12.0012195,1.78571429 L12.0012195,1.78571429 Z M12.6829268,8.99603175 C12.6829268,9.372988 12.3777161,9.67857143 12.0012195,9.67857143 L0.998780488,9.67857143 C0.622283933,9.67857143 0.317073171,9.372988 0.317073171,8.99603175 L0.317073171,2.78571429 C0.319238044,2.4096595 0.623184307,2.10534212 0.998780488,2.1031746 L3.32926829,2.1031746 C3.38144457,2.10423573 3.4306329,2.07886534 3.46006098,2.03571429 L4.6054878,0.317460317 L8.39847561,0.317460317 L9.53993902,2.03571429 C9.5693671,2.07886534 9.61855543,2.10423573 9.67073171,2.1031746 L12.0012195,2.1031746 C12.3768157,2.10534212 12.680762,2.4096595 12.6829268,2.78571429 L12.6829268,8.99603175 Z M6.5,2.89285714 C4.94585724,2.89285714 3.68597561,4.15427709 3.68597561,5.71031746 C3.68597561,7.26635783 4.94585724,8.52777778 6.5,8.52777778 C8.05414276,8.52777778 9.31402439,7.26635783 9.31402439,5.71031746 C9.31184134,4.15518335 8.05323761,2.89504286 6.5,2.89285714 Z M6.5,8.21031746 C5.12097192,8.21031746 4.00304878,7.09102933 4.00304878,5.71031746 C4.00304878,4.32960559 5.12097192,3.21031746 6.5,3.21031746 C7.87902808,3.21031746 8.99695122,4.32960559 8.99695122,5.71031746 C8.99476891,7.09012328 7.87812313,8.20813249 6.5,8.21031746 Z M10.9390244,3.01984127 C10.588795,3.01984127 10.304878,3.30410492 10.304878,3.6547619 C10.304878,4.00541889 10.588795,4.28968254 10.9390244,4.28968254 C11.2892537,4.28968254 11.5731707,4.00541889 11.5731707,3.6547619 C11.5731707,3.30410492 11.2892537,3.01984127 10.9390244,3.01984127 Z" id="Shape"></path>
                </g>
            </g>
        </g>
    </g>
</svg>