<svg xmlns="http://www.w3.org/2000/svg" width="93" height="95" viewBox="0 0 93 95">
    <g fill="none" fill-rule="evenodd">
        <g fill-rule="nonzero">
            <g>
                <g fill="#263238">
                    <path d="M.785 10.993c-.433 0-.784-.352-.785-.785V.785C0 .351.351 0 .785 0c.434 0 .785.351.785.785v9.423c0 .433-.352.784-.785.785z" transform="translate(-148 -121) translate(148 121) translate(9.423 43.972)"/>
                </g>
                <g fill="#263238">
                    <path d="M53.4 58.106H4.711C2.113 58.103.006 55.998 0 53.4v-.79c0-.28.15-.54.392-.68.243-.14.543-.14.786 0 .242.14.392.4.392.68v.79c.002 1.734 1.407 3.14 3.141 3.141H53.4c1.732-.004 3.134-1.409 3.136-3.141V4.711c-.002-1.732-1.404-3.137-3.136-3.141H4.711c-1.734.002-3.14 1.407-3.141 3.141V5.5c0 .434-.351.785-.785.785C.351 6.285 0 5.934 0 5.5v-.785C.001 2.113 2.109.003 4.711 0H53.4c2.6.003 4.708 2.11 4.711 4.711V53.4c-.006 2.598-2.113 4.703-4.711 4.706z" transform="translate(-148 -121) translate(148 121) translate(9.423 20.416)"/>
                </g>
                <g fill="#263238">
                    <path d="M.785 10.993c-.433 0-.784-.352-.785-.785V.785C0 .351.351 0 .785 0c.434 0 .785.351.785.785v9.423c0 .433-.352.784-.785.785z" transform="translate(-148 -121) translate(148 121) translate(9.423 43.972)"/>
                </g>
                <g fill="#263238">
                    <path d="M68.314 76.952H8.637C3.869 76.945.007 73.082 0 68.314V8.637C.007 3.87 3.87.007 8.637 0h59.677c4.767.007 8.63 3.87 8.637 8.637v59.677c-.006 4.768-3.87 8.631-8.637 8.638zM8.637 1.57c-3.9.005-7.062 3.166-7.067 7.067v59.677c.005 3.9 3.166 7.062 7.067 7.067h59.677c3.9-.005 7.062-3.166 7.067-7.067V8.637c-.005-3.9-3.166-7.062-7.067-7.067H8.637z" transform="translate(-148 -121) translate(148 121) translate(0 10.993)"/>
                </g>
                <g transform="translate(-148 -121) translate(148 121) translate(25.127 36.12)">
                    <circle cx="13.349" cy="13.349" r="12.564" fill="#1B71B9"/>
                    <path fill="#000" d="M13.349 26.7C5.977 26.699.002 20.722.002 13.35S5.978.002 13.35.002c7.372 0 13.349 5.975 13.35 13.347-.007 7.37-5.98 13.344-13.351 13.351zm0-25.127c-4.764 0-9.059 2.87-10.882 7.271-1.823 4.402-.814 9.468 2.554 12.836 3.37 3.368 8.436 4.376 12.837 2.552 4.4-1.824 7.27-6.12 7.269-10.883C25.12 6.847 19.851 1.577 13.349 1.57v.003z"/>
                </g>
                <g fill="#FFF">
                    <path d="M8.637 17.275C3.867 17.275 0 13.408 0 8.638 0 3.868 3.867.001 8.637.001c4.77 0 8.637 3.867 8.637 8.637-.007 4.767-3.87 8.63-8.637 8.637zm0-15.7c-2.86-.002-5.438 1.72-6.532 4.361-1.095 2.641-.49 5.682 1.531 7.703 2.022 2.022 5.063 2.626 7.704 1.531s4.362-3.674 4.36-6.533c-.005-3.9-3.164-7.06-7.063-7.067v.005z" transform="translate(-148 -121) translate(148 121) translate(29.838 40.832)"/>
                </g>
                <g fill="#263238">
                    <path d="M7.067 1.57H.785C.351 1.57 0 1.219 0 .785 0 .351.351 0 .785 0h6.282c.434 0 .785.351.785.785 0 .434-.351.785-.785.785z" transform="translate(-148 -121) translate(148 121) translate(73.811 3.141)"/>
                </g>
                <g fill="#263238">
                    <path d="M.785 7.852C.352 7.852.001 7.5 0 7.067V.785c0-.28.15-.54.392-.68.243-.14.543-.14.786 0 .242.14.392.4.392.68v6.282c0 .433-.352.784-.785.785z" transform="translate(-148 -121) translate(148 121) translate(76.952)"/>
                </g>
                <g fill="#263238">
                    <path d="M7.067 1.57H.785C.351 1.57 0 1.219 0 .785 0 .351.351 0 .785 0h6.282c.434 0 .785.351.785.785 0 .434-.351.785-.785.785z" transform="translate(-148 -121) translate(148 121) translate(84.804 17.275)"/>
                </g>
                <g fill="#263238">
                    <path d="M.785 7.852C.351 7.852 0 7.501 0 7.067V.785C0 .351.351 0 .785 0c.434 0 .785.351.785.785v6.282c0 .433-.352.784-.785.785z" transform="translate(-148 -121) translate(148 121) translate(87.945 14.134)"/>
                </g>
                <g fill="#263238">
                    <path d="M2.356 1.57H.786c-.434 0-.785-.351-.785-.785C.001.351.352 0 .786 0h1.57c.434 0 .785.351.785.785 0 .434-.351.785-.785.785z" transform="translate(-148 -121) translate(148 121) translate(23.557 92.656)"/>
                </g>
                <g fill="#263238">
                    <path d="M24.342 1.57H.785C.351 1.57 0 1.219 0 .785 0 .351.351 0 .785 0h23.557c.434 0 .785.351.785.785 0 .434-.351.785-.785.785z" transform="translate(-148 -121) translate(148 121) translate(28.268 92.656)"/>
                </g>
                <g fill="#263238">
                    <path d="M2.356 1.57H.786c-.28 0-.54-.15-.68-.392-.14-.243-.14-.543 0-.786C.246.15.506 0 .786 0h1.57c.28 0 .54.15.68.392.14.243.14.543 0 .786-.14.242-.4.392-.68.392z" transform="translate(-148 -121) translate(148 121) translate(50.254 4.711)"/>
                </g>
                <g fill="#263238">
                    <path d="M24.342 1.57H.785c-.28 0-.54-.15-.68-.392-.14-.243-.14-.543 0-.786C.245.15.505 0 .785 0h23.557c.28 0 .54.15.68.392.14.243.14.543 0 .786-.14.242-.4.392-.68.392z" transform="translate(-148 -121) translate(148 121) translate(23.557 4.711)"/>
                </g>
                <g fill="#263238">
                    <path d="M5.5 14.134H2.356C1.056 14.132.002 13.078 0 11.778V2.356C.002 1.056 1.056.002 2.356 0H5.5c1.3.002 2.354 1.056 2.356 2.356v9.423c-.002 1.3-1.056 2.353-2.356 2.355zM2.356 1.57c-.433.002-.783.352-.785.785v9.423c.002.433.352.783.785.785H5.5c.433-.002.783-.352.785-.785V2.356c-.001-.433-.352-.784-.785-.786H2.356z" transform="translate(-148 -121) translate(148 121) translate(6.282 28.268)"/>
                </g>
                <g fill="#263238">
                    <path d="M5.5 14.134H2.356C1.056 14.132.002 13.078 0 11.778V2.356C.002 1.056 1.056.002 2.356 0H5.5c1.3.002 2.354 1.056 2.356 2.356v9.423c-.002 1.3-1.056 2.353-2.356 2.355zM2.356 1.57c-.433.002-.783.352-.785.785v9.423c.002.433.352.783.785.785H5.5c.433-.002.783-.352.785-.785V2.356c-.001-.433-.352-.784-.785-.786H2.356z" transform="translate(-148 -121) translate(148 121) translate(6.282 56.536)"/>
                </g>
                <g fill="#263238">
                    <path d="M8.637 9.423c-.433 0-.784-.352-.785-.785V2.356c-.002-.433-.352-.783-.785-.785H.785C.351 1.571 0 1.22 0 .786 0 .352.351.001.785.001h6.282c1.3.002 2.354 1.056 2.356 2.356v6.282c-.001.433-.353.784-.786.784z" transform="translate(-148 -121) translate(148 121) translate(53.395 25.127)"/>
                </g>
            </g>
        </g>
    </g>
</svg>
