<?xml version="1.0" encoding="UTF-8"?>
<svg width="12px" height="19px" viewBox="0 0 12 19" version="1.1" xmlns="http://www.w3.org/2000/svg" xmlns:xlink="http://www.w3.org/1999/xlink">
    <!-- Generator: Sketch 64 (93537) - https://sketch.com -->
    <title>coupon@3x</title>
    <desc>Created with Sketch.</desc>
    <g id="Profile" stroke="none" stroke-width="1" fill="none" fill-rule="evenodd" opacity="0.35">
        <g id="3.6" transform="translate(-56.000000, -612.000000)" fill="#000000" fill-rule="nonzero">
            <g id="Tab" transform="translate(36.000000, 210.000000)">
                <g id="coupon-6" transform="translate(20.000000, 402.000000)">
                    <g id="coupon" transform="translate(6.000000, 9.500000) rotate(90.000000) translate(-6.000000, -9.500000) translate(-3.000000, 3.500000)">
                        <path d="M17.7692308,4.5 C17.8966811,4.5 18,4.3966811 18,4.26923077 L18,0.230769231 C18,0.103318904 17.8966811,0 17.7692308,0 L0.230769231,0 C0.103318904,0 0,0.103318904 0,0.230769231 L0,4.26923077 C0,4.3966811 0.103318904,4.5 0.230769231,4.5 C1.05919636,4.5 1.73076923,5.17157288 1.73076923,6 C1.73076923,6.82842712 1.05919636,7.5 0.230769231,7.5 C0.103318904,7.5 0,7.6033189 0,7.73076923 L0,11.7692308 C0,11.8966811 0.103318904,12 0.230769231,12 L17.7692308,12 C17.8966811,12 18,11.8966811 18,11.7692308 L18,7.73076923 C18,7.6033189 17.8966811,7.5 17.7692308,7.5 C16.9408036,7.5 16.2692308,6.82842712 16.2692308,6 C16.2692308,5.17157288 16.9408036,4.5 17.7692308,4.5 L17.7692308,4.5 Z M15.8076923,6 C15.8092262,6.99387231 16.5517979,7.8305032 17.5384615,7.95 L17.5384615,11.5384615 L0.461538462,11.5384615 L0.461538462,7.95 C1.45675299,7.8415749 2.21063132,7.00110337 2.21063132,6 C2.21063132,4.99889663 1.45675299,4.1584251 0.461538462,4.05 L0.461538462,0.461538462 L17.5384615,0.461538462 L17.5384615,4.05 C16.5517979,4.1694968 15.8092262,5.00612769 15.8076923,6 Z M9,8.88461538 C8.68137418,8.88461538 8.42307692,9.14291264 8.42307692,9.46153846 C8.42307692,9.78016428 8.68137418,10.0384615 9,10.0384615 C9.31862582,10.0384615 9.57692308,9.78016428 9.57692308,9.46153846 C9.57692308,9.14291264 9.31862582,8.88461538 9,8.88461538 L9,8.88461538 Z M9,6.57692308 C8.68137418,6.57692308 8.42307692,6.83522034 8.42307692,7.15384615 C8.42307692,7.47247197 8.68137418,7.73076923 9,7.73076923 C9.31862582,7.73076923 9.57692308,7.47247197 9.57692308,7.15384615 C9.57692308,6.83522034 9.31862582,6.57692308 9,6.57692308 L9,6.57692308 Z M9,4.26923077 C8.68137418,4.26923077 8.42307692,4.52752803 8.42307692,4.84615385 C8.42307692,5.16477966 8.68137418,5.42307692 9,5.42307692 C9.31862582,5.42307692 9.57692308,5.16477966 9.57692308,4.84615385 C9.57692308,4.52752803 9.31862582,4.26923077 9,4.26923077 L9,4.26923077 Z M9,1.96153846 C8.68137418,1.96153846 8.42307692,2.21983572 8.42307692,2.53846154 C8.42307692,2.85708736 8.68137418,3.11538462 9,3.11538462 C9.31862582,3.11538462 9.57692308,2.85708736 9.57692308,2.53846154 C9.57692308,2.21983572 9.31862582,1.96153846 9,1.96153846 L9,1.96153846 Z" id="Shape"></path>
                    </g>
                </g>
            </g>
        </g>
    </g>
</svg>