<?xml version="1.0" encoding="UTF-8"?>
<svg width="16px" height="11px" viewBox="0 0 16 11" version="1.1" xmlns="http://www.w3.org/2000/svg" xmlns:xlink="http://www.w3.org/1999/xlink">
    <title>envelope icon</title>
    <g id="Profile" stroke="none" stroke-width="1" fill="none" fill-rule="evenodd">
        <g id="3.4" transform="translate(-58.000000, -503.000000)" fill="#000000" fill-rule="nonzero">
            <g id="email-address" transform="translate(36.000000, 481.000000)">
                <g id="envelope-icon" transform="translate(22.000000, 22.000000)">
                    <path d="M15.804878,0 L0.195121951,0 C0.0873590732,0 0,0.085836475 0,0.191721133 L0,10.16122 C0,10.2671047 0.0873590732,10.3529412 0.195121951,10.3529412 L15.804878,10.3529412 C15.9126409,10.3529412 16,10.2671047 16,10.16122 L16,0.191721133 C16,0.085836475 15.9126409,0 15.804878,0 Z M0.390243902,0.589542484 L5.76585366,4.85054466 L5.76097561,4.85054466 L0.390243902,9.71546841 L0.390243902,0.589542484 Z M8,6.13028322 L0.746341463,0.383442266 L15.2536585,0.383442266 L8,6.13028322 Z M6.02926829,5.13333333 C6.0433442,5.11938292 6.05489228,5.10317319 6.06341463,5.08540305 L7.87804878,6.52331155 L7.88780488,6.52331155 L7.91219512,6.54248366 L7.92682927,6.54248366 L7.95121951,6.55206972 L8.04878049,6.55206972 L8.07804878,6.54248366 L8.08780488,6.54248366 C8.09785381,6.53889235 8.10642339,6.53215617 8.11219512,6.52331155 L8.12195122,6.52331155 L9.93658537,5.08540305 C9.94513759,5.10443799 9.95858699,5.12095672 9.97560976,5.13333333 L15.3170732,9.96949891 L0.687804878,9.96949891 L6.02926829,5.13333333 Z M10.2390244,4.85054466 L10.2341463,4.85054466 L15.6097561,0.589542484 L15.6097561,9.71546841 L10.2390244,4.85054466 Z" id="Shape"></path>
                </g>
            </g>
        </g>
    </g>
</svg>
