<?xml version="1.0" encoding="UTF-8"?>
<svg width="16px" height="16px" viewBox="0 0 16 16" version="1.1" xmlns="http://www.w3.org/2000/svg" xmlns:xlink="http://www.w3.org/1999/xlink">
    <title>Shape</title>
    <g id="Profile" stroke="none" stroke-width="1" fill="none" fill-rule="evenodd">
        <g id="3.1" transform="translate(-58.000000, -366.000000)" fill="#000000" fill-rule="nonzero">
            <g id="Address" transform="translate(37.000000, 343.000000)">
                <g id="Shape" transform="translate(21.000000, 23.000000)">
                    <path d="M15.869108,0.0392026186 C15.8056921,-0.00606306805 15.7224712,-0.0126331398 15.6527379,0.0221207681 L10.4313856,2.27692504 L5.64846744,0.0335086685 C5.58487144,0.00380386378 5.51097541,0.00591517901 5.44917919,0.0392026186 L0.125335769,2.738135 C0.0480110612,2.77709655 -0.000533706561,2.85653344 3.35522478e-05,2.94311721 L3.35522478e-05,15.7488112 C-0.00130765521,15.8251395 0.0376405419,15.8965446 0.102559969,15.9367115 C0.138388766,15.9642012 0.182700522,15.9783004 0.227826873,15.9767116 C0.259662988,15.9770676 0.291073962,15.9692149 0.318930075,15.9537934 L5.55167029,13.6591314 L10.3288945,15.9367115 C10.3928874,15.9711303 10.4698838,15.9711303 10.5338767,15.9367115 L15.8520262,13.1125122 C15.9272057,13.0749432 15.9738285,12.9972384 15.9716757,12.913224 L15.9716757,0.227102975 C15.9708262,0.151318193 15.9324067,0.0808824748 15.869108,0.0392026186 Z M15.5160831,4.54881116 C14.8271151,4.1445407 14.1324532,4.05343749 13.4548731,4.2811955 C12.1965101,4.70254781 11.2399265,6.13742326 10.6591436,7.38439835 L10.6591436,2.67550155 L15.5160831,0.574433935 L15.5160831,4.54881116 Z M5.78512225,9.44560831 C6.42853862,10.1801279 7.25416139,10.5900923 8.11964182,10.5900923 C8.24540795,10.5891008 8.37096239,10.5795891 8.49544253,10.5616225 C9.17275622,10.4763237 9.78782427,10.1236847 10.2036276,9.58226312 L10.2036276,15.3730104 L5.78512225,13.2662489 L5.78512225,9.44560831 Z M10.152382,8.69400689 C9.93031798,9.44560831 9.25843185,9.99792148 8.43280908,10.1118005 C7.4363678,10.2484553 6.44562047,9.71891792 5.78512225,8.69400689 L5.78512225,0.602903686 L10.2036276,2.67550155 L10.2036276,8.54027023 L10.152382,8.69400689 Z M5.32960623,0.614291587 L5.32960623,8.10753002 C4.62355641,7.39578625 3.59295143,7.05984319 2.30042474,7.13386454 C1.67374546,7.17501095 1.05432123,7.29163095 0.45558488,7.4811955 L0.45558488,3.08546596 L5.32960623,0.614291587 Z M0.45558488,7.96518127 C1.1388589,7.73172931 4.05985534,6.90041258 5.32960623,8.82496774 L5.32960623,13.2605549 L0.45558488,15.4014802 L0.45558488,7.96518127 Z M10.6591436,15.3559286 L10.6591436,8.61429159 C11.1146596,7.21927379 12.213592,5.17514568 13.5972219,4.71393571 C14.2178625,4.50895351 14.8669728,4.63422041 15.5160831,5.08973643 L15.5160831,12.7765692 L10.6591436,15.3559286 Z"></path>
                </g>
            </g>
        </g>
    </g>
</svg>