<?xml version="1.0" encoding="UTF-8"?>
<svg width="22px" height="14px" viewBox="0 0 22 14" version="1.1" xmlns="http://www.w3.org/2000/svg" xmlns:xlink="http://www.w3.org/1999/xlink">
    <title>mastercard</title>
    <g id="Payment-Methods" stroke="none" stroke-width="1" fill="none" fill-rule="evenodd">
        <g id="4.0" transform="translate(-62.000000, -387.000000)" fill-rule="nonzero">
            <g id="Credit-Card" transform="translate(37.000000, 360.000000)">
                <g id="mastercard" transform="translate(24.000000, 27.000000)">
                    <path d="M11.962,11.485 C13.159653,12.5870555 14.7284582,13.1975827 16.356,13.1950082 C19.9289815,13.096629 22.7743582,10.1718354 22.7743582,6.5975 C22.7743582,3.02316463 19.9289815,0.0983710265 16.356,-8.16100534e-06 C14.7284582,-0.00258273687 13.159653,0.607944537 11.962,1.71 C10.5834773,2.96099391 9.79735159,4.73596555 9.79735159,6.5975 C9.79735159,8.45903445 10.5834773,10.2340061 11.962,11.485 L11.962,11.485 Z" id="Path_15" fill="#E9B040"></path>
                    <path d="M22.043,10.27 C22.043,10.1595431 22.1325431,10.07 22.243,10.07 C22.2982227,10.0672881 22.3521994,10.0869973 22.3926814,10.124655 C22.4331634,10.1623127 22.456718,10.2147257 22.458,10.27 C22.4599735,10.3276039 22.4379562,10.3834442 22.3972002,10.4242002 C22.3564442,10.4649562 22.3006039,10.4869735 22.243,10.485 C22.1877257,10.483718 22.1353127,10.4601634 22.097655,10.4196814 C22.0599973,10.3791994 22.0402881,10.3252227 22.043,10.27 Z M22.243,10.441 C22.3359985,10.4388856 22.4108856,10.3639985 22.413,10.271 C22.4114375,10.2274945 22.3926416,10.1863954 22.3607538,10.1567585 C22.3288661,10.1271217 22.2865034,10.1113793 22.243,10.113 C22.1566271,10.1151076 22.0871076,10.1846271 22.085,10.271 C22.0846612,10.3609813 22.1533569,10.4361987 22.243,10.444 L22.243,10.441 Z M22.221,10.372 L22.176,10.372 L22.176,10.18 L22.255,10.18 C22.2708251,10.1782868 22.2867498,10.1821795 22.3,10.191 C22.323,10.202 22.323,10.214 22.323,10.236 C22.323,10.258 22.312,10.281 22.289,10.281 L22.334,10.371 L22.277,10.371 L22.255,10.292 L22.221,10.292 L22.221,10.258 L22.266,10.258 C22.277,10.258 22.277,10.247 22.277,10.235 C22.277,10.223 22.277,10.224 22.266,10.212 L22.221,10.212 L22.221,10.372 Z" id="Path_16" fill="#E9B040"></path>
                    <path d="M14.081,5.901 C14.058,5.664 14.013,5.436 13.968,5.201 L9.959,5.201 C10.0073152,4.96768503 10.0677301,4.73704028 10.14,4.51 L13.775,4.51 C13.6956667,4.27133333 13.6053333,4.038 13.504,3.81 L10.422,3.81 C10.535,3.571 10.66,3.336 10.796,3.11 L13.118,3.11 C12.9683482,2.86782123 12.8012386,2.6368757 12.618,2.419 L11.295,2.419 C11.4997896,2.16923818 11.7230869,1.93524396 11.963,1.719 C9.78033879,-0.238324258 6.56592537,-0.515228704 4.08067829,1.03998033 C1.59543121,2.59518937 0.439132367,5.60718251 1.24522489,8.425931 C2.05131742,11.2446795 4.6252614,13.1899152 7.557,13.1960113 C9.18820519,13.1990465 10.760928,12.5886616 11.963,11.486 C12.1993522,11.2728106 12.4189969,11.0417992 12.62,10.795 L11.295,10.795 C11.115653,10.5709894 10.9487353,10.3373046 10.795,10.095 L13.117,10.095 C13.2626092,9.87159361 13.3913017,9.63760737 13.502,9.395 L10.422,9.395 C10.322,9.169 10.222,8.942 10.138,8.704 L13.774,8.704 C13.8498498,8.47407981 13.9139329,8.24044346 13.966,8.004 C14.0154863,7.77272891 14.0532015,7.53909498 14.079,7.304 C14.102,7.075 14.1130764,6.844 14.1130764,6.613 C14.114111,6.37758929 14.1030964,6.14227759 14.08,5.908 L14.081,5.901 Z" id="Path_17" fill="#CC2131"></path>
                    <path d="M22.043,8.132 C22.0405663,8.07684984 22.0603697,8.02303044 22.0979692,7.98261093 C22.1355688,7.94219141 22.187818,7.91855421 22.243,7.917 C22.3006039,7.91502647 22.3564442,7.93704382 22.3972002,7.97779982 C22.4379562,8.01855583 22.4599735,8.0743961 22.458,8.132 C22.458,8.25074122 22.3617412,8.347 22.243,8.347 C22.1294578,8.34057691 22.0412092,8.2457096 22.043,8.132 L22.043,8.132 Z M22.243,8.291 C22.3036925,8.29783924 22.3629383,8.26930865 22.3954333,8.21759371 C22.4279282,8.16587876 22.4279282,8.10012124 22.3954333,8.04840629 C22.3629383,7.99669135 22.3036925,7.96816076 22.243,7.975 C22.155739,7.975 22.085,8.04573901 22.085,8.133 C22.085,8.22026099 22.155739,8.291 22.243,8.291 Z M22.221,8.222 L22.176,8.222 L22.176,8.041 L22.3,8.041 C22.323,8.052 22.323,8.075 22.323,8.097 C22.3196979,8.11665337 22.3070037,8.13345451 22.289,8.142 L22.334,8.221 L22.277,8.221 L22.255,8.153 L22.221,8.153 L22.221,8.117 L22.243,8.117 C22.254,8.117 22.265,8.117 22.265,8.106 C22.265,8.095 22.276,8.095 22.276,8.083 C22.276,8.07692487 22.2710751,8.072 22.265,8.072 C22.265,8.061 22.254,8.072 22.243,8.072 L22.221,8.072 L22.221,8.222 Z" id="Path_18" fill="#FFFFFF"></path>
                    <path d="M16.3,5.087 L16.176,5.812 C15.9826799,5.70065304 15.7649677,5.63849862 15.542,5.631 C15.01,5.631 14.636,6.152 14.636,6.888 C14.636,7.398 14.885,7.703 15.304,7.703 C15.5142886,7.69247384 15.7194438,7.63434653 15.904,7.533 L15.78,8.291 C15.577724,8.35197528 15.3681977,8.3856071 15.157,8.391 C14.387,8.391 13.911,7.836 13.911,6.942 C13.911,5.753 14.568,4.914 15.511,4.914 C15.6212943,4.91229731 15.7314,4.92371071 15.839,4.948 L16.123,5.016 C16.213,5.051 16.236,5.062 16.304,5.085 L16.3,5.087 Z M14.012,5.587 L13.944,5.587 C13.707,5.587 13.57,5.7 13.355,6.029 L13.423,5.61 L12.777,5.61 L12.334,8.326 L13.047,8.326 C13.307,6.661 13.375,6.378 13.715,6.378 L13.76,6.378 C13.8117296,6.10583496 13.9030314,5.84271079 14.031,5.597 L14.01,5.585 L14.012,5.587 Z M9.912,8.294 C9.74864366,8.35386313 9.57597924,8.38433332 9.402,8.384 C9.24165765,8.39870853 9.0834554,8.33888304 8.97296713,8.22175767 C8.86247887,8.1046323 8.81197339,7.94321285 8.836,7.784 C8.83864362,7.70426125 8.84632561,7.62476939 8.859,7.546 L8.904,7.275 L8.938,7.06 L9.244,5.203 L9.944,5.203 L9.865,5.611 L10.234,5.611 L10.144,6.279 L9.78,6.279 L9.588,7.412 C9.57928412,7.44900321 9.5755843,7.48701053 9.577,7.525 C9.577,7.661 9.645,7.717 9.814,7.717 C9.87890238,7.72272433 9.94428602,7.71489191 10.006,7.694 L9.917,8.294 L9.912,8.294 Z M7.182,6.47 C7.17775161,6.81081968 7.39203451,7.11613254 7.714,7.228 C8.009,7.364 8.054,7.409 8.054,7.523 C8.054,7.693 7.93,7.772 7.646,7.772 C7.43081878,7.77100518 7.21704062,7.73728622 7.012,7.672 L6.912,8.295 L6.946,8.306 L7.07,8.329 C7.13271423,8.3450545 7.19726824,8.35278753 7.262,8.352 C7.38959607,8.36909334 7.51827638,8.37678074 7.647,8.375 C8.394,8.375 8.747,8.091 8.747,7.469 C8.76891117,7.13286638 8.56462345,6.82316619 8.247,6.711 C7.941,6.575 7.907,6.541 7.907,6.416 C7.907,6.269 8.031,6.201 8.258,6.201 C8.42851327,6.20249285 8.59879753,6.21384513 8.768,6.235 L8.868,5.612 C8.66208206,5.57720738 8.4538128,5.55815225 8.245,5.555 C7.452,5.555 7.169,5.975 7.18,6.473 L7.182,6.47 Z M21.723,8.328 L21.055,8.328 L21.089,8.067 C20.9246226,8.25795024 20.683924,8.36602646 20.432,8.362 C19.911,8.362 19.572,7.92 19.572,7.241 C19.572,6.335 20.104,5.565 20.727,5.565 C21.0021196,5.56642462 21.257756,5.70723174 21.406,5.939 L21.564,4.987 L22.264,4.987 L21.72,8.328 L21.723,8.328 Z M20.681,7.694 C21.01,7.694 21.236,7.309 21.236,6.776 C21.236,6.425 21.112,6.244 20.862,6.244 C20.544,6.244 20.307,6.618 20.307,7.15 C20.307,7.512 20.432,7.694 20.681,7.694 Z M12.081,8.271 C11.8433027,8.34784469 11.5948022,8.38599762 11.345,8.384 C11.0116765,8.42501345 10.6782614,8.3084843 10.4430534,8.06876814 C10.2078454,7.82905198 10.0976665,7.49348486 10.145,7.161 C10.145,6.232 10.666,5.541 11.379,5.541 C11.6431798,5.5246164 11.9014018,5.62406793 12.0863425,5.81342567 C12.2712831,6.00278341 12.3646133,6.26328036 12.342,6.527 C12.3404975,6.75620537 12.3102617,6.98431794 12.252,7.206 L10.852,7.206 C10.8435723,7.23144823 10.8398449,7.25821746 10.841,7.285 C10.841,7.603 11.056,7.761 11.464,7.761 C11.7195597,7.76552414 11.9723119,7.70714388 12.2,7.591 L12.087,8.27 L12.081,8.271 Z M11.681,6.652 L11.681,6.516 C11.6929018,6.42163805 11.6613925,6.32696692 11.5953161,6.25855835 C11.5292396,6.19014979 11.4357179,6.15537707 11.341,6.164 C11.115,6.164 10.956,6.334 10.888,6.651 L11.681,6.652 Z M4.466,8.328 L3.766,8.328 L4.174,5.757 L3.256,8.328 L2.769,8.328 L2.712,5.779 L2.281,8.328 L1.634,8.328 L2.189,4.987 L3.208,4.987 L3.242,7.06 L3.921,4.987 L5.034,4.987 L4.479,8.328 L4.466,8.328 Z M6.234,7.116 C6.166,7.116 6.134,7.105 6.076,7.105 C5.676,7.105 5.476,7.252 5.476,7.524 C5.46600448,7.594575 5.4881671,7.66591462 5.53639364,7.71840215 C5.58462019,7.77088968 5.65383294,7.79899874 5.725,7.795 C6.02,7.795 6.225,7.523 6.235,7.116 L6.234,7.116 Z M6.755,8.328 L6.164,8.328 L6.175,8.044 C5.99467159,8.26907921 5.71578722,8.3919078 5.428,8.373 C5.24136185,8.37063018 5.06451207,8.28910603 4.9414921,8.14872975 C4.81847213,8.00835347 4.76085889,7.82233533 4.783,7.637 C4.783,6.969 5.236,6.584 6.029,6.584 C6.108,6.584 6.21,6.595 6.324,6.607 C6.34018384,6.55181491 6.347938,6.49450157 6.347,6.437 C6.347,6.256 6.223,6.188 5.894,6.188 C5.69557927,6.18563323 5.49766163,6.20848281 5.305,6.256 L5.205,6.29 L5.137,6.301 L5.237,5.689 C5.51183861,5.60099785 5.79842411,5.55514417 6.087,5.553 C6.698,5.553 7.027,5.824 7.027,6.345 C7.02251186,6.52756157 7.00345127,6.70947317 6.97,6.889 L6.812,7.852 L6.789,8.022 L6.778,8.158 L6.767,8.258 L6.754,8.326 L6.755,8.328 Z M17.444,7.116 C17.365,7.116 17.331,7.105 17.286,7.105 C16.878,7.105 16.675,7.252 16.675,7.524 C16.6678256,7.59606515 16.6926399,7.66764814 16.7428781,7.71981117 C16.7931162,7.7719742 16.8637161,7.7994611 16.936,7.795 C17.219,7.795 17.436,7.523 17.445,7.116 L17.444,7.116 Z M17.965,8.328 L17.376,8.328 L17.387,8.044 C17.2066716,8.26907921 16.9277872,8.3919078 16.64,8.373 C16.4533619,8.37063018 16.2765121,8.28910603 16.1534921,8.14872975 C16.0304721,8.00835347 15.9728589,7.82233533 15.995,7.637 C15.995,6.969 16.448,6.584 17.241,6.584 C17.3359916,6.58691505 17.4307773,6.59459135 17.525,6.607 C17.5431581,6.55191462 17.5545747,6.49483195 17.559,6.437 C17.559,6.256 17.435,6.188 17.106,6.188 C16.9039507,6.18563243 16.7023949,6.20847542 16.506,6.256 L16.416,6.29 L16.348,6.301 L16.448,5.689 C16.7228386,5.60099785 17.0094241,5.55514417 17.298,5.553 C17.909,5.553 18.227,5.824 18.227,6.345 C18.2284915,6.5278986 18.2093709,6.71038295 18.17,6.889 L18.023,7.852 L18,8.022 L17.977,8.158 L17.966,8.258 L17.966,8.326 L17.965,8.328 Z M19.865,5.587 L19.797,5.587 C19.56,5.587 19.423,5.7 19.208,6.029 L19.276,5.61 L18.634,5.61 L18.203,8.328 L18.903,8.328 C19.164,6.663 19.232,6.38 19.571,6.38 L19.616,6.38 C19.6677436,6.10783868 19.7590446,5.84471649 19.887,5.599 L19.865,5.587 L19.865,5.587 Z" id="Path_19" fill="#FFFFFF"></path>
                </g>
            </g>
        </g>
    </g>
</svg>