<?xml version="1.0" encoding="UTF-8"?>
<svg width="16px" height="15px" viewBox="0 0 12 15" version="1.1" xmlns="http://www.w3.org/2000/svg" xmlns:xlink="http://www.w3.org/1999/xlink">
    <title>Lock</title>
    <g id="Profile" stroke="none" stroke-width="1" fill="none" fill-rule="evenodd">
        <g id="3.1" transform="translate(-60.000000, -513.000000)" fill="#000000" fill-rule="nonzero">
            <g id="Change-Password" transform="translate(37.000000, 490.000000)">
                <g id="Lock" transform="translate(23.500000, 23.000000)">
                    <path d="M10.7544186,6.29893238 L9.59302326,6.29893238 L9.59302326,4.29181495 C9.59302326,1.921511 7.75135178,0 5.47953488,0 C3.20771799,0 1.36604651,1.921511 1.36604651,4.29181495 L1.36604651,6.29893238 L0.204651163,6.29893238 C0.0916254465,6.29893238 7.27066985e-16,6.39452995 7.27066985e-16,6.51245552 L7.27066985e-16,14.7704626 C7.27066985e-16,14.8883882 0.0916254465,14.9839858 0.204651163,14.9839858 L10.7544186,14.9839858 C10.8674443,14.9839858 10.9590698,14.8883882 10.9590698,14.7704626 L10.9590698,6.51245552 C10.9590698,6.39452995 10.8674443,6.29893238 10.7544186,6.29893238 Z M1.77534884,4.29181495 C1.77534884,2.15736214 3.43376942,0.427046263 5.47953488,0.427046263 C7.52530035,0.427046263 9.18372093,2.15736214 9.18372093,4.29181495 L9.18372093,6.29893238 L1.77534884,6.29893238 L1.77534884,4.29181495 Z M10.5497674,14.5569395 L0.409302326,14.5569395 L0.409302326,6.72597865 L10.5497674,6.72597865 L10.5497674,14.5569395 Z" id="Shape"></path>
                    <path d="M5.27488372,10.0996441 L5.27488372,12.7046263 C5.27488372,12.8225519 5.36650917,12.9181495 5.47953488,12.9181495 C5.5925606,12.9181495 5.68418605,12.8225519 5.68418605,12.7046263 L5.68418605,10.0996441 C6.08331859,9.99212092 6.34355679,9.59171814 6.29161501,9.16505327 C6.23967323,8.7383884 5.8917572,8.41858007 5.47953488,8.41858007 C5.06731257,8.41858007 4.71939654,8.7383884 4.66745476,9.16505327 C4.61551298,9.59171814 4.87575118,9.99212092 5.27488372,10.0996441 Z" id="Path"></path>
                </g>
            </g>
        </g>
    </g>
</svg>