<?xml version="1.0" encoding="UTF-8"?>
<svg width="75px" height="88px" viewBox="0 0 75 88" version="1.1" xmlns="http://www.w3.org/2000/svg" xmlns:xlink="http://www.w3.org/1999/xlink">
    <title>PayPal</title>
    <g id="Payment-Methods" stroke="none" stroke-width="1" fill="none" fill-rule="evenodd">
        <g id="4.4" transform="translate(-150.000000, -134.000000)" fill-rule="nonzero">
            <g id="icon_paypal" transform="translate(150.000000, 134.000000)">
                <path d="M60.8041667,6.38628571 C56.9,1.91504762 49.8458333,0 40.8333333,0 L14.6375,0 C12.7930572,0 11.222296,1.34849513 10.9333333,3.18057143 L0.0291666667,72.679619 C-0.0732535376,73.3324925 0.11380908,73.9977243 0.541042888,74.4999524 C0.968276695,75.0021806 1.59280657,75.2902871 2.25,75.2902871 L18.4166667,75.2902871 L22.4791667,49.4057143 L22.3541667,50.2144762 C22.6423795,48.3870927 24.206126,47.0398401 26.0458333,47.0339048 L33.725,47.0339048 C48.8166667,47.0339048 60.6333333,40.8739048 64.0875,23.0518095 C64.1902778,22.5238095 64.2791667,22.0097778 64.3541667,21.5097143 L64.3541667,21.5097143 C65.6983097,16.1847112 64.3713324,10.5351261 60.8,6.37790476" id="P" fill="#28346A"></path>
                <path d="M64.2875,21.3001905 L64.2875,21.3001905 C64.2083333,21.8030476 64.1208333,22.3100952 64.0208333,22.8339048 C60.575,40.5805714 48.7708333,46.719619 33.7,46.719619 L26.025,46.719619 C24.189962,46.717819 22.6269794,48.0603473 22.3416667,49.8834286 L17.3,81.936381 C17.2124778,82.5054239 17.3764066,83.0845317 17.7488121,83.5218902 C18.1212176,83.9592487 18.6649613,84.2118115 19.2375,84.2118115 L32.85,84.2118115 C34.4583328,84.2135722 35.829279,83.0391215 36.0833333,81.4419048 L36.2166667,80.7462857 L38.7791667,64.4620952 L38.9458333,63.5611429 C39.1998876,61.9639261 40.5708339,60.7894755 42.1791667,60.7912381 L44.2166667,60.7912381 C57.4,60.7912381 67.725,55.4232381 70.7416667,39.8975238 C72.3552812,34.5201853 71.3430851,28.692055 68.0125,24.1832381 C66.9554582,23.0024368 65.6931357,22.0254339 64.2875,21.3001905" id="shadow" fill="#2890C3"></path>
                <path d="M60.6791667,19.8754286 C60.1541667,19.7106032 59.6125,19.5709206 59.0541667,19.456381 C58.4958333,19.3180952 57.9166667,19.2091429 57.3458333,19.1127619 C55.1013914,18.7668101 52.8330872,18.6014604 50.5625,18.6182857 L30.0625,18.6182857 C28.4548095,18.6182791 27.0848426,19.7918908 26.8291667,21.3881905 L22.4708333,49.0788571 L22.3458333,49.887619 C22.6311461,48.0645378 24.1941287,46.7220095 26.0291667,46.7238095 L33.7041667,46.7238095 C48.775,46.7238095 60.575,40.5889524 64.025,22.8380952 C64.1291667,22.3142857 64.2125,21.8030476 64.2916667,21.304381 C63.3816202,20.8271637 62.4339581,20.4263106 61.4583333,20.1059048 C61.2,20.0179048 60.9416667,19.9382857 60.6791667,19.8754286" id="fill" fill="#1F274F"></path>
            </g>
        </g>
    </g>
</svg>