<?xml version="1.0" encoding="UTF-8"?>
<svg width="18px" height="21px" viewBox="0 0 18 21" version="1.1" xmlns="http://www.w3.org/2000/svg" xmlns:xlink="http://www.w3.org/1999/xlink">
    <title>icon_paypal</title>
    <g id="Payment-Methods" stroke="none" stroke-width="1" fill="none" fill-rule="evenodd">
        <g id="4.0" transform="translate(-64.000000, -497.000000)" fill-rule="nonzero">
            <g id="PayPal" transform="translate(37.000000, 474.000000)">
                <g id="icon_paypal" transform="translate(27.000000, 23.500000)">
                    <path d="M14.593,1.524 C13.656,0.457 11.963,0 9.8,0 L3.513,0 C3.07033373,0 2.69335105,0.321799975 2.624,0.759 L0.007,17.344 C-0.017580849,17.4997993 0.0273141792,17.6585478 0.129850293,17.7783977 C0.232386407,17.8982476 0.382273576,17.9670003 0.54,17.9670003 L4.42,17.9670003 L5.395,11.79 L5.365,11.983 C5.43417108,11.5469198 5.80947024,11.2254164 6.251,11.224 L8.094,11.224 C11.716,11.224 14.552,9.754 15.381,5.501 C15.4056667,5.375 15.427,5.25233333 15.445,5.133 L15.445,5.133 C15.7675943,3.86226062 15.4491198,2.51406418 14.592,1.522" id="P" fill="#28346A"></path>
                    <path d="M15.429,5.083 L15.429,5.083 C15.41,5.203 15.389,5.324 15.365,5.449 C14.538,9.684 11.705,11.149 8.088,11.149 L6.246,11.149 C5.80559089,11.1485704 5.43047507,11.4689465 5.362,11.904 L4.152,19.553 C4.13099468,19.6887943 4.17033759,19.8269905 4.25971491,19.9313602 C4.34909223,20.0357298 4.47959072,20.0960005 4.617,20.0960005 L7.884,20.0960005 C8.26999987,20.0964206 8.59902697,19.816154 8.66,19.435 L8.692,19.269 L9.307,15.383 L9.347,15.168 C9.40797303,14.786846 9.73700013,14.5065794 10.123,14.507 L10.612,14.507 C13.776,14.507 16.254,13.226 16.978,9.521 C17.3652675,8.23777149 17.1223404,6.84696766 16.323,5.771 C16.06931,5.48921788 15.7663526,5.25606946 15.429,5.083" id="shadow" fill="#2890C3"></path>
                    <path d="M14.563,4.743 C14.437,4.70366667 14.307,4.67033333 14.173,4.643 C14.039,4.61 13.9,4.584 13.763,4.561 C13.2243339,4.47844333 12.6799409,4.43898486 12.135,4.443 L7.215,4.443 C6.82915428,4.44299842 6.50036223,4.72306484 6.439,5.104 L5.393,11.712 L5.363,11.905 C5.43147507,11.4699465 5.80659089,11.1495704 6.247,11.15 L8.089,11.15 C11.706,11.15 14.538,9.686 15.366,5.45 C15.391,5.325 15.411,5.203 15.43,5.084 C15.2115889,4.97011861 14.9841499,4.87446048 14.75,4.798 C14.688,4.777 14.626,4.758 14.563,4.743" id="fill" fill="#1F274F"></path>
                </g>
            </g>
        </g>
    </g>
</svg>