<?xml version="1.0" encoding="UTF-8"?>
<svg width="16px" height="15px" viewBox="0 0 16 15" version="1.1" xmlns="http://www.w3.org/2000/svg" xmlns:xlink="http://www.w3.org/1999/xlink">
    <title>Path</title>
    <g id="Profile" stroke="none" stroke-width="1" fill="none" fill-rule="evenodd">
        <g id="3.1" transform="translate(-58.000000, -439.000000)" fill="#000000" fill-rule="nonzero">
            <g id="Personal-Info" transform="translate(37.000000, 416.000000)">
                <path d="M32.5121951,33.3719276 C32.1073171,33.2652005 31.7560976,33.1778784 31.6,33.10511 C31.1268293,32.8965071 31.1268293,32.0572445 31.1414634,31.7661708 C31.5365854,31.3295602 31.8341463,30.6358344 32.0536585,29.6510349 C32.2585366,29.5540103 32.4146341,29.3405563 32.5170732,29.165912 C32.7658537,28.7293014 32.9463415,28.0598318 32.804878,27.6135188 C32.7181924,27.3519512 32.5421549,27.1288232 32.3073171,26.982859 C32.3073171,26.7597025 32.3073171,26.2648771 32.297561,25.8864812 C32.2195122,23.1406856 29.5560976,23 29.004878,23 L28.995122,23 C28.4439024,23 25.7804878,23.1406856 25.7073171,25.8864812 C25.6926829,26.2648771 25.697561,26.7597025 25.697561,26.982859 C25.4612955,27.1272371 25.2847969,27.3509495 25.2,27.6135188 C25.0536585,28.0598318 25.2341463,28.7293014 25.4829268,29.165912 C25.5853659,29.3405563 25.7463415,29.5540103 25.9463415,29.6510349 C26.1658537,30.6358344 26.4682927,31.3295602 26.8585366,31.7661708 C26.8731707,32.0572445 26.8731707,32.8965071 26.4,33.10511 C26.2439024,33.1778784 25.8926829,33.2652005 25.4878049,33.3719276 C23.8097561,33.8085382 21,34.5362225 21,36.2584088 L21,37.8059508 C21,37.9131212 21.0873591,38 21.195122,38 C21.3028848,38 21.3902439,37.9131212 21.3902439,37.8059508 L21.3902439,36.2584088 C21.3902439,34.8321475 24.1219512,34.1287193 25.5902439,33.7454722 C26.0292683,33.6338939 26.3756098,33.5417206 26.5609756,33.4592497 C27.2780488,33.1390686 27.2780488,32.1009056 27.2439024,31.6691462 C27.2384826,31.6243281 27.2198077,31.5821186 27.1902439,31.5478655 C26.8097561,31.1597671 26.5219512,30.4757439 26.3073171,29.4666882 C26.2887222,29.393593 26.2301669,29.3372382 26.1560976,29.3211514 C26.0829268,29.3017464 25.9560976,29.2047219 25.8243902,28.9718629 C25.5902439,28.5643596 25.4780488,28.021022 25.5707317,27.7299483 C25.6350449,27.5322563 25.7777796,27.3692768 25.9658537,27.278784 C26.0394276,27.2491856 26.0876441,27.1782176 26.0878049,27.0992885 C26.0878049,27.089586 26.0829268,26.3910091 26.097561,25.9010349 C26.1560976,23.572445 28.3219512,23.3880983 28.995122,23.3880983 L29.004878,23.3880983 C29.6780488,23.3880983 31.8439024,23.572445 31.9073171,25.9010349 C31.9170732,26.3910091 31.9121951,27.089586 31.9121951,27.0992885 C31.9123559,27.1782176 31.9605724,27.2491856 32.0341463,27.278784 C32.223298,27.3678681 32.3665061,27.5313882 32.4292683,27.7299483 C32.5219512,28.021022 32.4146341,28.5643596 32.1804878,28.9718629 C32.0439024,29.2047219 31.9170732,29.3017464 31.8439024,29.3211514 C31.7705348,29.336725 31.7132207,29.393724 31.697561,29.4666882 C31.4780488,30.4757439 31.1902439,31.1597671 30.8097561,31.5478655 C30.7801923,31.5821186 30.7615174,31.6243281 30.7560976,31.6691462 C30.7219512,32.1009056 30.7219512,33.1390686 31.4390244,33.4592497 C31.6243902,33.5417206 31.9756098,33.6338939 32.4146341,33.7454722 C33.8780488,34.1287193 36.6097561,34.8321475 36.6097561,36.2584088 L36.6097561,37.8059508 C36.6097561,37.9131212 36.6971152,38 36.804878,38 C36.9126409,38 37,37.9131212 37,37.8059508 L37,36.2584088 C37,34.5362225 34.1902439,33.8085382 32.5121951,33.3719276 Z" id="Path"></path>
            </g>
        </g>
    </g>
</svg>