<?xml version="1.0" encoding="UTF-8"?>
<svg width="94px" height="94px" viewBox="0 0 94 94" version="1.1" xmlns="http://www.w3.org/2000/svg" xmlns:xlink="http://www.w3.org/1999/xlink">
    <!-- Generator: Sketch 64 (93537) - https://sketch.com -->
    <title>Customer image avatar@3x</title>
    <desc>Created with Sketch.</desc>
    <g id="Profile" stroke="none" stroke-width="1" fill="none" fill-rule="evenodd">
        <g id="3.4" transform="translate(-141.000000, -148.000000)" stroke="#000000">
            <g id="Customer-image-avatar" transform="translate(141.000000, 148.000000)">
                <g id="avatar" transform="translate(8.000000, 8.000000)" stroke-width="0.25">
                    <path d="M38.7624742,6.90894576e-05 C17.2548896,0.13122437 -0.086603607,17.6498504 0.000325392534,39.1578878 C0.0879100844,60.6659253 17.5709742,78.0432671 39.0789144,77.9999191 C60.5868546,77.9564086 78,60.5086045 78,39.0003901 C77.9089885,17.4061182 60.3566691,-0.0400601538 38.7624742,6.90894576e-05 L38.7624742,6.90894576e-05 Z M39.0400279,77.8881862 C27.170212,77.8960986 15.9388296,72.5407271 8.50844495,63.3300434 C12.4398684,60.2829517 19.3296771,58.5253816 23.96099,57.3114078 C25.4216259,56.9930873 26.8596929,56.5797258 28.2659205,56.0739881 C31.5009453,54.6377129 31.5009453,50.0084608 31.351717,48.1015319 C31.3284634,47.8712539 31.2325398,47.6542132 31.0776955,47.4815195 C29.4353117,45.7986288 28.1664349,42.8522674 27.2204498,38.4687624 C27.1529055,38.0759933 26.8437216,37.7683384 26.4490007,37.7011281 C26.1496714,37.6273171 25.6278088,37.1566634 25.0797657,36.2396703 C24.0840378,34.5029409 23.5866102,32.179197 23.9845523,30.9426457 C24.2627607,30.1253108 24.8526103,29.4494959 25.6269361,29.0608994 C26.0124657,28.9177388 26.2697799,28.553345 26.2744647,28.1439063 C26.2744647,28.1195921 26.2491569,25.0742372 26.2988997,22.9198244 C26.5729212,12.8667664 35.9533587,12.0756862 38.8899269,12.0756862 L38.9396697,12.0756862 C41.876238,12.0756862 51.2566754,12.8667664 51.5306969,22.9198244 C51.5804397,25.0733688 51.5804397,28.1187237 51.5804397,28.1439063 C51.5579823,28.5537566 51.8122281,28.9284494 52.2026606,29.0608994 C52.9782847,29.4478341 53.5686716,30.1242644 53.8450443,30.9426457 C54.2429864,32.1809337 53.7699939,34.5081511 52.7498309,36.2396703 C52.4713433,36.8657449 51.9894042,37.3804723 51.3814687,37.7011281 C50.9868739,37.7685809 50.6778076,38.0761189 50.6100195,38.4687624 C49.6649071,42.8522674 48.4204654,45.7977604 46.7780816,47.4815195 C46.6053922,47.6446629 46.4991434,47.8653837 46.479625,48.1015319 C46.3303967,50.0119342 46.3303967,54.6368445 49.5654216,56.0739881 C50.9725088,56.5761754 52.4100537,56.9894706 53.8694794,57.3114078 C58.5226092,58.5271183 65.5633916,60.3324485 69.445945,63.4516145 C62.0240395,72.5888983 50.8470786,77.8956582 39.0400279,77.8881862 Z" id="Path_28710"></path>
                </g>
                <circle id="Oval" stroke-width="0.2" cx="47" cy="47" r="46.9"></circle>
            </g>
        </g>
    </g>
</svg>