<?xml version="1.0" encoding="UTF-8"?>
<svg width="105px" height="90px" viewBox="0 0 105 90" version="1.1" xmlns="http://www.w3.org/2000/svg" xmlns:xlink="http://www.w3.org/1999/xlink">
    <title>Profile Big Icon@3x</title>
    <g id="Profile" stroke="none" stroke-width="1" fill="none" fill-rule="evenodd">
        <g id="3.1" transform="translate(-135.000000, -136.000000)" fill-rule="nonzero">
            <g id="Profile-Big-Icon" transform="translate(135.000000, 136.000000)">
                <g id="Group_8463" transform="translate(59.261000, 3.247000)" fill="#263238">
                    <path d="M7.306,1.624 L0.812,1.624 C0.363544783,1.624 0,1.26045522 0,0.812 C0,0.363544783 0.363544783,-8.8817842e-16 0.812,-8.8817842e-16 L7.306,-8.8817842e-16 C7.59609967,-8.8817842e-16 7.86416282,0.154766311 8.00921266,0.40599999 C8.15426249,0.657233669 8.15426249,0.966766331 8.00921266,1.21800001 C7.86416282,1.46923369 7.59609967,1.624 7.306,1.624 L7.306,1.624 Z" id="Path_13667"></path>
                </g>
                <g id="Group_8464" transform="translate(62.508000, 0.000000)" fill="#263238">
                    <path d="M0.812,8.11800062 C0.363544783,8.11800062 0,7.75445522 0,7.306 L0,0.812 C0,0.363544783 0.363544783,-8.8817842e-16 0.812,-8.8817842e-16 C1.26045522,-8.8817842e-16 1.62400062,0.363544783 1.62400062,0.812 L1.62400062,7.306 C1.62426581,7.52143717 1.53880141,7.72812702 1.38646422,7.88046422 C1.23412702,8.03280141 1.02743717,8.11826581 0.812,8.11800062 Z" id="Path_13668"></path>
                </g>
                <g id="Group_8465" transform="translate(46.272000, 12.177000)" fill="#263238">
                    <path d="M7.306,1.624 L0.812,1.624 C0.363544783,1.624 0,1.26045522 0,0.812 C0,0.363544783 0.363544783,0 0.812,0 L7.306,0 C7.75445522,0 8.118,0.363544783 8.118,0.812 C8.118,1.26045522 7.75445522,1.624 7.306,1.624 Z" id="Path_13669"></path>
                </g>
                <g id="Group_8466" transform="translate(49.519000, 8.930000)" fill="#263238">
                    <path d="M0.812,8.11800062 C0.59664421,8.11800062 0.390108833,8.03245025 0.237829294,7.88017071 C0.0855497544,7.72789117 0,7.52135579 0,7.306 L0,0.812 C0,0.363544783 0.363544783,-1.77635684e-15 0.812,-1.77635684e-15 C1.26045522,-1.77635684e-15 1.62400062,0.363544783 1.62400062,0.812 L1.62400062,7.306 C1.62426581,7.52143717 1.53880141,7.72812702 1.38646422,7.88046422 C1.23412702,8.03280141 1.02743717,8.11826581 0.812,8.11800062 L0.812,8.11800062 Z" id="Path_13670"></path>
                </g>
                <g id="Group_8467" transform="translate(53.207000, 15.439000)" fill="#263238">
                    <path d="M0.813,13.6090007 C0.450904104,13.6086498 0.132911058,13.3683039 0.033772974,13.0200436 C-0.0653651101,12.6717834 0.0783744434,12.2999976 0.386,12.109 L14.906,3.147 C21.45328,-0.893569583 29.6801342,-1.0529498 36.379,2.731 L41.821,5.808 C43.5271946,6.77177689 45.453417,7.27847809 47.413,7.279 L49.892,7.279 C50.3404552,7.27900003 50.704,7.6425448 50.704,8.091 C50.704,8.5394552 50.3404552,8.90299997 49.892,8.903 L47.413,8.903 C45.1733013,8.90209667 42.9717053,8.32345444 41.021,7.223 L35.579,4.146 C29.3963724,0.651951969 21.8024013,0.798314076 15.759,4.528 L1.239,13.491 C1.11039757,13.5683986 0.963096905,13.6092002 0.813,13.6090007 L0.813,13.6090007 Z" id="Path_13671"></path>
                </g>
                <g id="Group_8468" transform="translate(61.698000, 27.511000)" fill="#263238">
                    <path d="M15.907,26.0560009 L5.683,26.0560009 C2.5740392,26.0147565 0.0753840169,23.4827344 0.0753840169,20.3735 C0.0753840169,17.2642656 2.5740392,14.7322435 5.683,14.691 L10.523,14.691 C14.1248306,14.6865921 17.0435921,11.7678306 17.048,8.166 C17.0501539,5.81442744 15.7866032,3.64366401 13.7407501,2.48418853 C11.694897,1.32471306 9.18336415,1.35596952 7.167,2.566 L2.043,5.641 C1.65833367,5.871855 1.15935505,5.7471663 0.928500031,5.36249998 C0.697645013,4.97783367 0.822333694,4.47885504 1.207,4.248 L6.331,1.173 C8.84848661,-0.337185311 11.9836849,-0.376537203 14.5382831,1.06998511 C17.0928812,2.51650742 18.6719692,5.2252891 18.672,8.161 C18.66759,12.6597405 15.0217405,16.30559 10.523,16.31 L5.683,16.31 C3.4412762,16.31 1.624,18.1272762 1.624,20.369 C1.624,22.6107238 3.4412762,24.428 5.683,24.428 L15.907,24.428 C18.0857252,24.4308245 20.219135,23.8059038 22.052,22.628 L26.399,19.832 C29.1480652,18.062491 32.3486699,17.1223415 35.618,17.124 L41.399,17.124 C41.8474552,17.124 42.211,17.4875448 42.211,17.936 C42.211,18.3844552 41.8474552,18.748 41.399,18.748 L35.617,18.748 C32.6586134,18.745462 29.762369,19.5968696 27.276,21.2 L22.93,23.994 C20.8354211,25.341127 18.3973838,26.0569512 15.907,26.0560009 Z" id="Path_13672"></path>
                </g>
                <g id="Group_8469" transform="translate(29.225000, 17.845000)" fill="#263238">
                    <path d="M2.435,1.624 L0.812,1.624 C0.363544783,1.624 -3.55271368e-15,1.26045522 -3.55271368e-15,0.812 C-3.55271368e-15,0.363544783 0.363544783,0 0.812,0 L2.436,0 C2.88445522,0 3.248,0.363544783 3.248,0.812 C3.248,1.26045522 2.88445522,1.624 2.436,1.624 L2.435,1.624 Z" id="Path_13673"></path>
                </g>
                <g id="Group_8470" transform="translate(8.118000, 17.845000)" fill="#263238">
                    <path d="M18.672,1.624 L0.812,1.624 C0.363544783,1.624 -8.8817842e-16,1.26045522 -8.8817842e-16,0.812 C-8.8817842e-16,0.363544783 0.363544783,0 0.812,0 L18.672,0 C19.1204552,0 19.484,0.363544783 19.484,0.812 C19.484,1.26045522 19.1204552,1.624 18.672,1.624 Z" id="Path_13674"></path>
                </g>
                <g id="Group_8471" transform="translate(-0.000000, 22.716000)" fill="#263238">
                    <path d="M18.672,1.624 L0.812,1.624 C0.521900329,1.624 0.253837172,1.4692337 0.108787332,1.21800001 C-0.0362625085,0.966766333 -0.0362625085,0.657233667 0.108787332,0.405999986 C0.253837172,0.154766305 0.521900329,0 0.812,0 L18.672,0 C19.1204552,0 19.484,0.363544802 19.484,0.812 C19.484,1.2604552 19.1204552,1.624 18.672,1.624 Z" id="Path_13675"></path>
                </g>
                <g id="Group_8472" transform="translate(28.905000, 39.300000)" fill="#263238">
                    <path d="M15.418,30.8340183 C8.06315814,30.8291965 1.73586012,25.6297907 0.30545033,18.415385 C-1.12495946,11.2009793 2.73988382,3.98076409 9.53650535,1.17013112 C16.3331269,-1.64050184 24.1686878,0.741200293 28.251493,6.85875077 C32.3342982,12.9763012 31.5272985,21.1259805 26.324,26.324 C23.4327928,29.217413 19.5083396,30.8403072 15.418,30.8340183 Z M15.418,1.623 C8.8379846,1.62765192 3.17748909,6.27955586 1.89801988,12.7339794 C0.618550676,19.1884029 4.07642703,25.6478542 10.1570883,28.1622493 C16.2377495,30.6766445 23.2477929,28.5457499 26.9004364,23.0726503 C30.5530799,17.5995506 29.8310992,10.308449 25.176,5.658 C22.5893381,3.06899872 19.0777407,1.61728896 15.418,1.624 L15.418,1.623 Z" id="Path_13676"></path>
                </g>
                <g id="Group_8473" transform="translate(28.250000, 38.644000)" fill="#FFB800">
                    <circle id="Ellipse_1854" transform="translate(16.072537, 16.073000) rotate(-45.000000) translate(-16.072537, -16.073000) " cx="16.0725371" cy="16.073" r="11.365"></circle>
                </g>
                <g id="Group_8474" transform="translate(23.567000, 62.526000)" fill="#263238">
                    <path d="M5.257,11.9470027 C4.92846548,11.947841 4.6318801,11.7503909 4.50590926,11.4469655 C4.37993842,11.14354 4.44947188,10.7940912 4.682,10.562 L10.996,4.248 L8.696,1.948 L2.382,8.264 C2.1786752,8.47749104 1.87560723,8.56400213 1.59022123,8.49001413 C1.30483522,8.41602613 1.08197387,8.19316478 1.00798587,7.90777877 C0.933997874,7.62239277 1.02050896,7.3193248 1.234,7.116 L8.123,0.227 C8.44478376,-0.0782727295 8.94921624,-0.0782727295 9.271,0.227 L12.716,3.672 C13.0328782,3.98906663 13.0328782,4.50293337 12.716,4.82 L5.83,11.71 C5.67805832,11.8619682 5.4718966,11.9472393 5.257,11.9470027 L5.257,11.9470027 Z" id="Path_13677"></path>
                </g>
                <g id="Group_8475" transform="translate(9.743000, 70.674000)" fill="#263238">
                    <path d="M7.025,18.6240059 C6.37905538,18.6251194 5.75917877,18.3693258 5.302,17.913 L0.711,13.32 L0.711,13.32 C-0.238098102,12.3677742 -0.238098102,10.8272258 0.711,9.875 L9.898,0.69 C10.862948,-0.226828603 12.377052,-0.226828603 13.342,0.69 L17.935,5.282 C18.8834338,6.23411004 18.8834338,7.77388996 17.935,8.726 L8.748,17.91 C8.29194128,18.3683645 7.67159533,18.6254318 7.025,18.6240059 Z M1.859,12.172 L6.451,16.764 C6.76806663,17.0808782 7.28193337,17.0808782 7.599,16.764 L16.784,7.579 C17.0992334,7.26125412 17.0992334,6.74874588 16.784,6.431 L12.192,1.839 C11.8708251,1.53220465 11.3651749,1.53220465 11.044,1.839 L1.857,11.024 C1.70457959,11.1761354 1.6189267,11.3826464 1.6189267,11.598 C1.6189267,11.8133536 1.70457959,12.0198646 1.857,12.172 L1.859,12.172 Z" id="Path_13678"></path>
                </g>
                <g id="Group_8476" transform="translate(23.567000, 62.526000)" fill="#263238">
                    <path d="M5.257,11.9470027 C4.92846548,11.947841 4.6318801,11.7503909 4.50590926,11.4469655 C4.37993842,11.14354 4.44947188,10.7940912 4.682,10.562 L10.996,4.248 L8.696,1.948 L2.382,8.264 C2.1786752,8.47749104 1.87560723,8.56400213 1.59022123,8.49001413 C1.30483522,8.41602613 1.08197387,8.19316478 1.00798587,7.90777877 C0.933997874,7.62239277 1.02050896,7.3193248 1.234,7.116 L8.123,0.227 C8.44478376,-0.0782727295 8.94921624,-0.0782727295 9.271,0.227 L12.716,3.672 C13.0328782,3.98906663 13.0328782,4.50293337 12.716,4.82 L5.83,11.71 C5.67805832,11.8619682 5.4718966,11.9472393 5.257,11.9470027 L5.257,11.9470027 Z" id="Path_13679"></path>
                </g>
                <g id="Group_8477" transform="translate(9.743000, 70.674000)">
                    <path d="M1.286,12.747 L5.878,17.339 C6.18243036,17.6450682 6.59631078,17.8171539 7.028,17.8171539 C7.45968922,17.8171539 7.87356964,17.6450682 8.178,17.339 L17.363,8.154 C17.6690682,7.84956964 17.8411539,7.43568922 17.8411539,7.004 C17.8411539,6.57231078 17.6690682,6.15843036 17.363,5.854 L12.771,1.262 C12.4665696,0.955931813 12.0526892,0.783846144 11.621,0.783846144 C11.1893108,0.783846144 10.7754304,0.955931813 10.471,1.262 L1.286,10.451 C0.981159181,10.7552708 0.809853394,11.1682929 0.809853394,11.599 C0.809853394,12.0297071 0.981159181,12.4427292 1.286,12.747 L1.286,12.747 Z" id="Path_13680" fill="#FFB800"></path>
                    <path d="M7.025,18.6240059 C6.37905538,18.6251194 5.75917877,18.3693258 5.302,17.913 L0.711,13.32 L0.711,13.32 C-0.238098102,12.3677742 -0.238098102,10.8272258 0.711,9.875 L9.898,0.69 C10.862948,-0.226828603 12.377052,-0.226828603 13.342,0.69 L17.935,5.282 C18.8834338,6.23411004 18.8834338,7.77388996 17.935,8.726 L8.748,17.91 C8.29194128,18.3683645 7.67159533,18.6254318 7.025,18.6240059 Z M1.859,12.172 L6.451,16.764 C6.76806663,17.0808782 7.28193337,17.0808782 7.599,16.764 L16.784,7.579 C17.0992334,7.26125412 17.0992334,6.74874588 16.784,6.431 L12.192,1.839 C11.8708251,1.53220465 11.3651749,1.53220465 11.044,1.839 L1.857,11.024 C1.70457959,11.1761354 1.6189267,11.3826464 1.6189267,11.598 C1.6189267,11.8133536 1.70457959,12.0198646 1.857,12.172 L1.859,12.172 Z" id="Path_13681" fill="#263238"></path>
                </g>
                <g id="Group_8478" transform="translate(24.414000, 54.325000)" fill="#263238">
                    <path d="M35.333,34.148 L4.483,34.141 C2.59114419,34.1313317 0.874674701,33.0310308 0.076,31.316 C-0.113157497,30.9097946 0.0627946016,30.4271576 0.469000019,30.238 C0.875205437,30.0488425 1.35784246,30.2247946 1.547,30.631 C2.07855115,31.7751784 3.22240244,32.5100941 4.484,32.518 L35.333,32.529 C37.1253549,32.5267961 38.5777961,31.0743549 38.58,29.282 L38.58,0.812 C38.58,0.363544783 38.9435448,-7.10542736e-15 39.392,-7.10542736e-15 C39.8404552,-7.10542736e-15 40.204,0.363544783 40.204,0.812 L40.204,29.277 C40.201244,31.9660366 38.0220366,34.145244 35.333,34.148 Z" id="Path_13682"></path>
                </g>
                <g id="Group_8479" transform="translate(24.028000, 34.893000)" fill="#263238">
                    <path d="M0.812,32.084 C0.363544783,32.084 -1.77635684e-15,31.7204552 -1.77635684e-15,31.272 L-1.77635684e-15,4.872 C0.0033059158,2.18319153 2.18219153,0.0043059158 4.871,0.001 L35.72,0.001 C38.4088085,0.0043059158 40.5876941,2.18319153 40.591,4.872 L40.591,5.737 C40.591,6.18545522 40.2274552,6.549 39.779,6.549 C39.3305448,6.549 38.967,6.18545522 38.967,5.737 L38.967,4.872 C38.9647961,3.07964511 37.5123549,1.62720394 35.72,1.625 L4.871,1.625 C3.07864511,1.62720394 1.62620394,3.07964511 1.624,4.872 L1.624,31.272 C1.624,31.7204552 1.26045522,32.084 0.812,32.084 Z" id="Path_13683"></path>
                </g>
                <g id="Group_8480" transform="translate(38.641000, 47.411000)">
                    <circle id="Ellipse_1855" fill="#FFFFFF" cx="5.683" cy="5.683" r="4.871"></circle>
                    <path d="M5.683,11.365 C2.54436577,11.365 0,8.82063423 0,5.682 C0,2.54336577 2.54436577,-0.001 5.683,-0.001 C8.82163423,-0.001 11.366,2.54336577 11.366,5.682 C11.362693,8.8192634 8.8202634,11.361693 5.683,11.365 Z M5.683,1.623 C3.4412762,1.623 1.624,3.4402762 1.624,5.682 C1.624,7.9237238 3.4412762,9.741 5.683,9.741 C7.9247238,9.741 9.742,7.9237238 9.742,5.682 C9.73869432,3.44180886 7.92319189,1.6267537 5.683,1.624 L5.683,1.623 Z" id="Path_13684" fill="#263238"></path>
                </g>
                <g id="Group_8481" transform="translate(35.977000, 56.153000)">
                    <path d="M8.374,1.811 C5.0151458,1.81502603 2.00725772,3.89162646 0.813,7.031 C5.11937282,10.8787685 11.6286272,10.8787685 15.935,7.031 C14.7407423,3.89162646 11.7328542,1.81502603 8.374,1.811 Z" id="Path_13685" fill="#FFFFFF"></path>
                    <path d="M8.373,10.7320015 C5.3832604,10.7320015 2.49879361,9.6280926 0.273,7.632 C0.0203350653,7.4064141 -0.0657592679,7.04768771 0.057,6.732 C1.36982109,3.27745072 4.68090669,0.99363245 8.3765,0.99363245 C12.0720933,0.99363245 15.3831789,3.27745072 16.696,6.732 C16.816963,7.04780715 16.7311185,7.4054924 16.48,7.632 C14.2522601,9.62945852 11.3651002,10.7334668 8.373,10.7320015 L8.373,10.7320015 Z M1.794,6.799 C5.6402995,9.87716076 11.1067005,9.87716076 14.953,6.799 C13.752834,4.25130815 11.1897266,2.62546911 8.3735,2.62546911 C5.55727341,2.62546911 2.994166,4.25130815 1.794,6.799 L1.794,6.799 Z" id="Path_13686" fill="#263238"></path>
                </g>
                <g id="Group_8482" transform="translate(36.205000, 26.775000)" fill="#263238">
                    <path d="M15.424,6.49400062 C14.9755448,6.49400062 14.612,6.13045522 14.612,5.682 L14.612,4.87 C14.6097961,3.07764511 13.1573549,1.62520394 11.365,1.623 L4.871,1.623 C3.07864511,1.62520394 1.62620394,3.07764511 1.624,4.87 L1.624,5.682 C1.624,6.13045522 1.26045522,6.49400062 0.812,6.49400062 C0.363544783,6.49400062 -3.55271368e-15,6.13045522 -3.55271368e-15,5.682 L-3.55271368e-15,4.87 C0.0033059158,2.18119153 2.18219153,0.0023059158 4.871,-0.001 L11.365,-0.001 C14.0538085,0.0023059158 16.2326941,2.18119153 16.2360006,4.87 L16.2360006,5.682 C16.2362658,5.89743717 16.1508014,6.10412702 15.9984642,6.25646422 C15.846127,6.40880141 15.6394372,6.49426581 15.424,6.49400062 L15.424,6.49400062 Z" id="Path_13687"></path>
                </g>
                <g id="Group_8483" transform="translate(41.076000, 30.022000)" fill="#263238">
                    <path d="M5.683,1.624 L0.812,1.624 C0.363544783,1.624 -3.55271368e-15,1.26045522 -3.55271368e-15,0.812 C-3.55271368e-15,0.363544783 0.363544783,-3.55271368e-15 0.812,-3.55271368e-15 L5.683,-3.55271368e-15 C6.13145522,-3.55271368e-15 6.495,0.363544783 6.495,0.812 C6.495,1.26045522 6.13145522,1.624 5.683,1.624 L5.683,1.624 Z" id="Path_13688"></path>
                </g>
                <g id="Group_8484" transform="translate(35.393000, 75.013000)" fill="#263238">
                    <path d="M17.048,1.624 L0.812,1.624 C0.363544783,1.624 -3.55271368e-15,1.26045522 -3.55271368e-15,0.812 C-3.55271368e-15,0.363544783 0.363544783,0 0.812,0 L17.048,0 C17.4964552,0 17.86,0.363544783 17.86,0.812 C17.86,1.26045522 17.4964552,1.624 17.048,1.624 Z" id="Path_13689"></path>
                </g>
                <g id="Group_8485" transform="translate(37.017000, 79.884000)" fill="#263238">
                    <path d="M13.8,1.624 L0.812,1.624 C0.363544783,1.624 -3.55271368e-15,1.26045522 -3.55271368e-15,0.812 C-3.55271368e-15,0.363544783 0.363544783,0 0.812,0 L13.8,0 C14.2484552,0 14.612,0.363544783 14.612,0.812 C14.612,1.26045522 14.2484552,1.624 13.8,1.624 Z" id="Path_13690"></path>
                </g>
            </g>
        </g>
    </g>
</svg>