<?xml version="1.0" encoding="UTF-8"?>
<svg width="22px" height="17px" viewBox="0 0 22 17" version="1.1" xmlns="http://www.w3.org/2000/svg" xmlns:xlink="http://www.w3.org/1999/xlink">
    <!-- Generator: Sketch 64 (93537) - https://sketch.com -->
    <title>camera icon</title>
    <desc>Created with Sketch.</desc>
    <g id="messanger-/-do-not-need" stroke="none" stroke-width="1" fill="none" fill-rule="evenodd">
        <g id="Chat-with-shipper" transform="translate(-47.000000, -761.000000)" fill="#000000" fill-rule="nonzero">
            <g id="Message-box" transform="translate(0.000000, 737.000000)">
                <g id="camera-icon" transform="translate(47.000000, 24.000000)">
                    <path d="M2.29390244,1.41666667 L4.4402439,1.41666667 C4.51195462,1.41854099 4.58128404,1.39071368 4.63200829,1.33969665 C4.68273254,1.28867962 4.71040015,1.21895002 4.70853659,1.1468254 C4.70853659,0.997796179 4.58841786,0.876984127 4.4402439,0.876984127 L2.29390244,0.876984127 C2.14572848,0.876984127 2.02560976,0.997796179 2.02560976,1.1468254 C2.02374619,1.21895002 2.0514138,1.28867962 2.10213805,1.33969665 C2.1528623,1.39071368 2.22219173,1.41854099 2.29390244,1.41666667 L2.29390244,1.41666667 Z M20.3097561,3.03571429 L16.5134146,3.03571429 L14.575,0.121428571 C14.5259023,0.0464341038 14.4429309,0.000915783459 14.3536585,9.5866877e-16 L7.64634146,9.5866877e-16 C7.55706907,0.000915783459 7.47409773,0.0464341038 7.425,0.121428571 L5.49329268,3.03571429 L1.6902439,3.03571429 C0.756747972,3.03571429 0,3.79683021 0,4.73571429 L0,15.293254 C0,16.232138 0.756747972,16.993254 1.6902439,16.993254 L20.3097561,16.993254 C21.243252,16.993254 22,16.232138 22,15.293254 L22,4.73571429 C22,3.79683021 21.243252,3.03571429 20.3097561,3.03571429 L20.3097561,3.03571429 Z M21.4634146,15.293254 C21.4634146,15.9340796 20.9469041,16.4535714 20.3097561,16.4535714 L1.6902439,16.4535714 C1.05309589,16.4535714 0.536585366,15.9340796 0.536585366,15.293254 L0.536585366,4.73571429 C0.540248998,4.09642115 1.0546196,3.5790816 1.6902439,3.57539683 L5.63414634,3.57539683 C5.72244465,3.57720073 5.80568644,3.53407108 5.8554878,3.46071429 L7.79390244,0.53968254 L14.2128049,0.53968254 L16.1445122,3.46071429 C16.1943136,3.53407108 16.2775554,3.57720073 16.3658537,3.57539683 L20.3097561,3.57539683 C20.9453804,3.5790816 21.459751,4.09642115 21.4634146,4.73571429 L21.4634146,15.293254 Z M11,4.91785714 C8.36991226,4.91785714 6.23780488,7.06227106 6.23780488,9.70753968 C6.23780488,12.3528083 8.36991226,14.4972222 11,14.4972222 C13.6300877,14.4972222 15.7621951,12.3528083 15.7621951,9.70753968 C15.7585007,7.06381169 13.628556,4.92157286 11,4.91785714 Z M11,13.9575397 C8.66626017,13.9575397 6.77439024,12.0547499 6.77439024,9.70753968 C6.77439024,7.3603295 8.66626017,5.45753968 11,5.45753968 C13.3337398,5.45753968 15.2256098,7.3603295 15.2256098,9.70753968 C15.2219166,12.0532096 13.3322084,13.9538252 11,13.9575397 Z M18.5121951,5.13373016 C17.9194993,5.13373016 17.4390244,5.61697837 17.4390244,6.21309524 C17.4390244,6.80921211 17.9194993,7.29246032 18.5121951,7.29246032 C19.104891,7.29246032 19.5853659,6.80921211 19.5853659,6.21309524 C19.5853659,5.61697837 19.104891,5.13373016 18.5121951,5.13373016 Z" id="Shape"></path>
                </g>
            </g>
        </g>
    </g>
</svg>