<?xml version="1.0" encoding="UTF-8"?>
<svg width="15px" height="15px" viewBox="0 0 15 15" version="1.1" xmlns="http://www.w3.org/2000/svg" xmlns:xlink="http://www.w3.org/1999/xlink">
    <!-- Generator: Sketch 64 (93537) - https://sketch.com -->
    <title>Path@3x</title>
    <desc>Created with Sketch.</desc>
    <g id="Stores" stroke="none" stroke-width="1" fill="none" fill-rule="evenodd">
        <g id="11.16" transform="translate(-81.000000, -306.000000)" fill="#000000" fill-rule="nonzero">
            <g id="Delivery-process-icons" transform="translate(36.000000, 300.000000)">
                <path d="M52.4998789,6.0716913 C52.4554511,6.02586532 52.394351,6 52.3305268,6 C52.2667026,6 52.2056025,6.02586532 52.1611747,6.0716913 C52.0682291,6.16782243 52.0682291,6.32033878 52.1611747,6.41646991 L59.146949,13.2576033 L45.2419316,13.2576033 C45.1083165,13.2576033 45,13.3659279 45,13.4995532 C45,13.6331784 45.1083165,13.7415031 45.2419316,13.7415031 L59.189287,13.7415031 L52.2035127,20.5886852 C52.1576902,20.6331163 52.1318268,20.6942211 52.1318268,20.7580501 C52.1318268,20.8218791 52.1576902,20.8829839 52.2035127,20.927415 C52.2477897,20.9735699 52.308909,20.9997659 52.3728648,21 C52.4354848,20.9989371 52.4956183,20.9753115 52.5422169,20.9334638 L59.9271783,13.6931131 C59.9755135,13.6478312 60.0019667,13.5838977 59.9997578,13.5176994 C60.0002406,13.4535924 59.9739301,13.3921966 59.9271783,13.3483345 L52.4998789,6.0716913 Z" id="Path"></path>
            </g>
        </g>
    </g>
</svg>