<?xml version="1.0" encoding="UTF-8"?>
<svg width="12px" height="12px" viewBox="0 0 12 12" version="1.1" xmlns="http://www.w3.org/2000/svg" xmlns:xlink="http://www.w3.org/1999/xlink">
    <!-- Generator: Sketch 64 (93537) - https://sketch.com -->
    <title>clock@3x</title>
    <desc>Created with Sketch.</desc>
    <g id="Stores" stroke="none" stroke-width="1" fill="none" fill-rule="evenodd">
        <g id="11.6" transform="translate(-111.000000, -990.000000)" fill="#000000" fill-rule="nonzero">
            <g id="Delivery-same-day" transform="translate(36.000000, 987.000000)">
                <g id="clock" transform="translate(75.000000, 3.000000)">
                    <path d="M5.746,-6.38600284e-16 C2.57257183,-6.38600284e-16 1.38777878e-15,2.57257183 1.38777878e-15,5.746 C1.38777878e-15,8.91942817 2.57257183,11.492 5.746,11.492 C8.91942817,11.492 11.492,8.91942817 11.492,5.746 C11.4886929,2.57394268 8.91805732,0.00330709981 5.746,-6.38600284e-16 Z M5.746,10.815 C2.94591632,10.815 0.676,8.54508368 0.676,5.745 C0.676,2.94491632 2.94591632,0.675 5.746,0.675 C8.54608368,0.675 10.816,2.94491632 10.816,5.745 C10.8132438,8.54394122 8.54494122,10.8122438 5.746,10.815 L5.746,10.815 Z M9.351,6.084 L9.351,6.76 L5.295,6.76 L5.295,3.38 L5.971,3.38 L5.971,6.08 L9.351,6.084 Z" id="time"></path>
                </g>
            </g>
        </g>
    </g>
</svg>