<?xml version="1.0" encoding="UTF-8"?>
<svg width="15px" height="15px" viewBox="0 0 15 15" version="1.1" xmlns="http://www.w3.org/2000/svg" xmlns:xlink="http://www.w3.org/1999/xlink">
    <title>ic_right_arrow</title>
    <g id="Welcome" stroke="none" stroke-width="1" fill="none" fill-rule="evenodd">
        <g id="1.8" transform="translate(-302.000000, -700.000000)">
            <rect fill="#FFFFFF" x="0" y="0" width="375" height="812"></rect>
            <g id="Button-Create-Account" transform="translate(36.000000, 680.000000)">
                <g id="Button_yellow" fill="#000000">
                    <rect id="Rectangle" x="0" y="0" width="300" height="55" rx="27"></rect>
                </g>
                <circle id="Oval" stroke="#FFB800" stroke-width="0.2" fill="#FFFFFF" cx="273.5" cy="27.5" r="27.4"></circle>
                <g id="Group" transform="translate(266.500000, 20.500000)" fill="#000000" fill-rule="nonzero">
                    <g id="Combined_Shape">
                        <path d="M6.293,13.7070783 C5.90261806,13.3165784 5.90261806,12.6835781 6.293,12.2930783 L10.586,8.00007829 L1,8.00007829 C0.44771525,8.00007829 -2.13162821e-14,7.55236304 -2.13162821e-14,7.00007829 C-2.13162821e-14,6.44779354 0.44771525,6.00007829 1,6.00007829 L10.728,6.00007829 L6.763,1.67607829 C6.38965552,1.26904443 6.41696616,0.636422791 6.82400001,0.263078306 C7.23103387,-0.11026618 7.86365551,-0.0829555564 8.237,0.32407829 L13.737,6.32407829 C14.104601,6.72640713 14.0823656,7.34899826 13.687,7.72407829 C13.4234229,7.97413164 11.4300896,9.96846498 7.707,13.7070783 C7.31650015,14.0974602 6.68349985,14.0974602 6.293,13.7070783 Z"></path>
                    </g>
                </g>
                <text id="CREATE-ACCOUNT" fill="#FFFFFF" font-family="RobotoCondensed-Regular, Roboto Condensed" font-size="16" font-weight="normal">
                    <tspan x="91.0742188" y="32">CREATE ACCOUNT</tspan>
                </text>
            </g>
            <g id="iPhone-X-Frame" transform="translate(0.000000, 0.000000)" fill="#000000">
                <path d="M-7.10542736e-15,0 L375,0 L375,812 L-7.10542736e-15,812 L-7.10542736e-15,0 Z M40,0 L335,0 C357.09139,-4.05812251e-15 375,17.90861 375,40 L375,772 C375,794.09139 357.09139,812 335,812 L40,812 C17.90861,812 -4.40001235e-15,794.09139 -7.10542736e-15,772 L-7.10542736e-15,40 C-9.81084236e-15,17.90861 17.90861,4.05812251e-15 40,0 Z M106.039054,31 L268.960946,31 C281.663495,31 291.960946,20.7025492 291.960946,8 C291.960946,7.99147462 291.95879,6.71458263 291.954479,4.16932405 L291.954478,4.16932405 C291.954323,4.07746778 291.970341,3.98630146 292.001801,3.9000001 C292.001801,3.9000001 292.001801,3.9000001 292.001801,3.9000001 C292.667785,2.07301174 294.211271,0.676168263 296.108167,0.216238031 L297,0 L78,0 L78.8918331,0.216238031 C80.7796201,0.673959707 82.3332983,2.08608489 83.0043945,3.9000001 C83.0192652,3.94019419 83.0330484,3.98600042 83.0457442,4.03741878 L83.0457442,4.03741878 L83.0390876,7.96097867 L83.0390876,7.96097867 C83.0390545,20.7025492 93.3365052,31 106.039054,31 Z"></path>
            </g>
        </g>
    </g>
</svg>
