<?xml version="1.0" encoding="UTF-8"?>
<svg width="24px" height="24px" viewBox="0 0 24 24" version="1.1" xmlns="http://www.w3.org/2000/svg" xmlns:xlink="http://www.w3.org/1999/xlink">
    <title>Right Arrow Icon</title>
    <g id="Welcome" stroke="none" stroke-width="1" fill="none" fill-rule="evenodd">
        <g id="1.3" transform="translate(-32.000000, -50.000000)">
            <g id="Header" transform="translate(0.000000, -1.000000)">
                <rect id="BG" stroke="#FFFFFF" x="0.5" y="0.5" width="374" height="79"></rect>
                <g id="Right-Arrow-Icon" transform="translate(32.000000, 51.000000)">
                    <g id="Right_Arrow_Icon" transform="translate(12.000000, 12.000000) rotate(180.000000) translate(-12.000000, -12.000000) translate(-0.000000, 0.000000)">
                        <polygon id="Shape" points="0 0 24 0 24 24 0 24"></polygon>
                        <path d="M11.293,18.707 C10.9026181,18.3165001 10.9026181,17.6834999 11.293,17.293 L15.586,13 L6,13 C5.44771525,13 5,12.5522847 5,12 C5,11.4477153 5.44771525,11 6,11 L15.728,11 L11.763,6.676 C11.3896555,6.26896614 11.4169662,5.6363445 11.824,5.26300002 C12.2310339,4.88965553 12.8636555,4.91696615 13.237,5.324 L18.737,11.324 C19.104601,11.7263288 19.0823656,12.34892 18.687,12.724 L12.707,18.707 C12.3165001,19.0973819 11.6834999,19.0973819 11.293,18.707 Z" id="Combined_Shape" fill="#000000" fill-rule="nonzero"></path>
                    </g>
                </g>
            </g>
        </g>
    </g>
</svg>
