<?xml version="1.0" encoding="UTF-8"?>
<svg width="4px" height="7px" viewBox="0 0 4 7" version="1.1" xmlns="http://www.w3.org/2000/svg" xmlns:xlink="http://www.w3.org/1999/xlink">
    <title>current-location drop down arrow</title>
    <g id="symbols" stroke="none" stroke-width="1" fill="none" fill-rule="evenodd">
        <g id="show-all" transform="translate(-40.000000, -5.000000)" fill="#000000" fill-rule="nonzero" stroke="#000000" stroke-width="0.4">
            <g transform="translate(-9885.000000, 0.000000)" id="Group">
                <g transform="translate(9924.000000, 7.000000)">
                    <g id="current-location-drop-down-arrow" transform="translate(3.000000, 1.500000) rotate(-90.000000) translate(-3.000000, -1.500000) ">
                        <path d="M5.90262633,0 C5.87709375,0.000460078725 5.8528362,0.0106888796 5.83539348,0.028378069 L2.99252144,2.77737607 L0.166585663,0.0421460055 C0.128133741,0.00688346026 0.0671280468,0.00688346026 0.0286761255,0.0421460055 C0.0103459868,0.0590014273 0,0.082182156 0,0.106396376 C0,0.130610596 0.0103459868,0.153791325 0.0286761255,0.170646747 L2.92235694,2.97242184 C2.94081324,2.99028263 2.96615465,3.0002278 2.99252144,2.99995771 C3.01828692,3.00073922 3.04309388,2.9906561 3.06026648,2.97242184 L5.97330302,0.15687881 C6.00981696,0.119794732 6.00874658,0.0619299439 5.97088356,0.0260834129 C5.95278605,0.00899613174 5.92815891,-0.000404759386 5.90262633,0 Z" id="Path"></path>
                    </g>
                </g>
            </g>
        </g>
    </g>
</svg>