<?xml version="1.0" encoding="UTF-8"?>
<svg width="10px" height="11px" viewBox="0 0 10 11" version="1.1" xmlns="http://www.w3.org/2000/svg" xmlns:xlink="http://www.w3.org/1999/xlink">
    <!-- Generator: Sketch 64 (93537) - https://sketch.com -->
    <title>Clock@3x</title>
    <desc>Created with Sketch.</desc>
    <g id="Stores" stroke="none" stroke-width="1" fill="none" fill-rule="evenodd">
        <g id="11.17" transform="translate(-37.000000, -345.000000)">
            <g id="Delivery-process-icons" transform="translate(36.000000, 300.000000)">
                <g id="delivery-start">
                    <g id="Clock" transform="translate(1.000000, 45.500000)">
                        <circle id="Oval" fill="#FFB800" cx="4.8" cy="4.8" r="4.5"></circle>
                        <path d="M4.78833333,-5.32166903e-16 C2.14380986,-5.32166903e-16 1.15648232e-15,2.14380986 1.15648232e-15,4.78833333 C1.15648232e-15,7.43285681 2.14380986,9.57666667 4.78833333,9.57666667 C7.43285681,9.57666667 9.57666667,7.43285681 9.57666667,4.78833333 C9.57391075,2.14495224 7.43171443,0.00275591651 4.78833333,-5.32166903e-16 Z M4.78833333,9.0125 C2.45493027,9.0125 0.563333333,7.12090307 0.563333333,4.7875 C0.563333333,2.45409693 2.45493027,0.5625 4.78833333,0.5625 C7.1217364,0.5625 9.01333333,2.45409693 9.01333333,4.7875 C9.01103648,7.11995102 7.12078435,9.01020315 4.78833333,9.0125 L4.78833333,9.0125 Z M7.7925,5.07 L7.7925,5.63333333 L4.4125,5.63333333 L4.4125,2.81666667 L4.97583333,2.81666667 L4.97583333,5.06666667 L7.7925,5.07 Z" id="time" fill="#000000" fill-rule="nonzero"></path>
                    </g>
                </g>
            </g>
        </g>
    </g>
</svg>