<?xml version="1.0" encoding="UTF-8"?>
<svg xmlns="http://www.w3.org/2000/svg" xmlns:xlink="http://www.w3.org/1999/xlink" width="20pt" height="20pt" viewBox="0 0 70 70" version="1.1">
<g id="surface1">
<path style=" stroke:none;fill-rule:nonzero;fill:rgb(0%,0%,0%);fill-opacity:1;" d="M 67.265625 32.265625 L 37.734375 32.265625 L 37.734375 2.734375 C 37.734375 1.222656 36.511719 0 35 0 C 33.488281 0 32.265625 1.222656 32.265625 2.734375 L 32.265625 32.265625 L 2.734375 32.265625 C 1.222656 32.265625 0 33.488281 0 35 C 0 36.511719 1.222656 37.734375 2.734375 37.734375 L 32.265625 37.734375 L 32.265625 67.265625 C 32.265625 68.777344 33.488281 70 35 70 C 36.511719 70 37.734375 68.777344 37.734375 67.265625 L 37.734375 37.734375 L 67.265625 37.734375 C 68.777344 37.734375 70 36.511719 70 35 C 70 33.488281 68.777344 32.265625 67.265625 32.265625 Z M 67.265625 32.265625 "/>
</g>
</svg>
