<?xml version="1.0" encoding="UTF-8"?>
<svg width="20px" height="20px" viewBox="0 0 20 20" version="1.1" xmlns="http://www.w3.org/2000/svg" xmlns:xlink="http://www.w3.org/1999/xlink">
    <title>current-location@3x</title>
    <g id="Food-Discover-(categories-with-listing)" stroke="none" stroke-width="1" fill="none" fill-rule="evenodd">
        <g id="10.1" transform="translate(-33.000000, -650.000000)" fill="#000000" fill-rule="nonzero">
            <g id="select" transform="translate(1.000000, 585.000000)">
                <g id="Action-7" transform="translate(10.000000, 60.000000)">
                    <g id="current-location" transform="translate(22.000000, 5.000000)">
                        <path d="M8.642,10.999 C8.84662148,11.1014488 8.92944878,11.3503785 8.82699997,11.555 C8.72455115,11.7596215 8.4756215,11.8424488 8.271,11.74 L0.687,7.944 C0.23727924,7.71931289 -0.0328202221,7.24585372 0.00263970986,6.74438024 C0.0380996418,6.24290676 0.372136351,5.81216696 0.849,5.653 L8.619,3.063 C8.75940538,3.0161982 8.91411377,3.04785693 9.024848,3.14605066 C9.13558224,3.24424439 9.18551916,3.39405515 9.15584801,3.53905067 C9.12617686,3.6840462 9.02140539,3.80219822 8.881,3.849 L1.111,6.439 C0.951586538,6.49168261 0.839775155,6.63542603 0.827937893,6.80290137 C0.816100631,6.97037671 0.906581661,7.12841828 1.057,7.203 L8.642,10.996 L8.642,10.999 Z M8.958,11.454 L12.358,18.471 C12.4308674,18.6225098 12.5881241,18.7149085 12.7559426,18.7048174 C12.9237611,18.6947264 13.0688128,18.5841497 13.123,18.425 L18.954,1.378 C19.0049797,1.22950022 18.9675696,1.06494081 18.8573997,0.953076042 C18.7472299,0.841211278 18.5832607,0.801293235 18.434,0.85 L12.134,2.891 C11.9163998,2.96141631 11.6829163,2.84210019 11.6125,2.6245 C11.5420837,2.40689981 11.6613998,2.17341631 11.879,2.103 L18.179,0.061 C18.6263353,-0.0835472412 19.1169452,0.0366424981 19.446814,0.371589398 C19.7766827,0.706536297 19.8893639,1.19892496 19.738,1.644 L13.907,18.693 C13.7437789,19.1692709 13.3093808,19.5000465 12.8068527,19.5307151 C12.3043246,19.5613838 11.8329265,19.2858879 11.613,18.833 L7.955,11.286 L14.316,4.926 C14.4778194,4.76418057 14.7401806,4.76418057 14.902,4.926 C15.0638194,5.08781943 15.0638194,5.35018057 14.902,5.512 L8.958,11.454 Z M5.565,14.16 L0.697,11.583 C0.566240794,11.5136905 0.482390496,11.3798866 0.477034702,11.2319911 C0.471678908,11.0840955 0.54563129,10.9445771 0.671034702,10.8659911 C0.796438114,10.787405 0.954240794,10.7816905 1.085,10.851 L6.178,13.551 L8.878,18.644 C8.98514324,18.8461362 8.90813622,19.0968568 8.706,19.204 C8.50386378,19.3111432 8.25314324,19.2341362 8.146,19.032 L5.569,14.164 L5.565,14.16 Z" id="Path_14574"></path>
                    </g>
                </g>
            </g>
        </g>
    </g>
</svg>