<?xml version="1.0" encoding="UTF-8"?>
<svg width="12px" height="12px" viewBox="0 0 12 12" version="1.1" xmlns="http://www.w3.org/2000/svg" xmlns:xlink="http://www.w3.org/1999/xlink">
    <!-- Generator: Sketch 64 (93537) - https://sketch.com -->
    <title>2line_close_white@3x</title>
    <desc>Created with Sketch.</desc>
    <defs>
        <path d="M12,4 C12.6311826,4 13.1428571,4.51167457 13.1428571,5.14285714 L13.142,10.857 L18.8571429,10.8571429 C19.4883254,10.8571429 20,11.3688174 20,12 C20,12.6311826 19.4883254,13.1428571 18.8571429,13.1428571 L13.142,13.142 L13.1428571,18.8571429 C13.1428571,19.4883254 12.6311826,20 12,20 C11.3688174,20 10.8571429,19.4883254 10.8571429,18.8571429 L10.857,13.142 L5.14285714,13.1428571 C4.51167457,13.1428571 4,12.6311826 4,12 C4,11.3688174 4.51167457,10.8571429 5.14285714,10.8571429 L10.857,10.857 L10.8571429,5.14285714 C10.8571429,4.51167457 11.3688174,4 12,4 Z" id="path-1"></path>
    </defs>
    <g id="Food-Discover-(categories-with-listing)" stroke="none" stroke-width="1" fill="none" fill-rule="evenodd">
        <g id="10.8" transform="translate(-325.000000, -154.000000)">
            <g id="2line_close_white" transform="translate(319.000000, 148.000000)">
                <mask id="mask-2" fill="white">
                    <use xlink:href="#path-1"></use>
                </mask>
                <use id="2line" fill="#FFFFFF" fill-rule="evenodd" transform="translate(12.000000, 12.000000) rotate(45.000000) translate(-12.000000, -12.000000) " xlink:href="#path-1"></use>
            </g>
        </g>
    </g>
</svg>