<svg xmlns="http://www.w3.org/2000/svg" width="18" height="15" viewBox="0 0 18 15">
    <g fill="none" fill-rule="evenodd">
        <g fill="#3B5998">
            <g>
                <g>
                    <path d="M9.953 2.314l-1.2 1.2c-.133.13-.345.13-.478 0-.064-.063-.1-.149-.1-.238 0-.09.036-.176.1-.239L10.916.395c.53-.527 1.385-.527 1.915 0l1.928 1.928c.527.53.527 1.386 0 1.915l-8.318 8.318-2.913.416c-.373.067-.755-.053-1.023-.32-.267-.269-.387-.651-.319-1.024l.416-2.911 4.241-4.24c.133-.13.345-.13.478 0 .064.063.1.149.1.238 0 .09-.036.176-.1.239l-3.6 3.6 1.2 1.2 6.238-6.238-1.206-1.202zm.48-.48l2.879 2.879.96-.96c.262-.265.262-.691 0-.956L12.344.869c-.265-.262-.69-.262-.955 0l-.956.965zm2.4 3.359l-1.2-1.2-6.238 6.238 1.2 1.2 6.239-6.238h-.001zm-9.6 3.839l-.384 2.687c-.037.161.011.33.128.447.116.117.285.166.446.129l2.689-.384-2.879-2.879zM.339 14.624c-.187 0-.339-.152-.339-.339 0-.187.152-.339.339-.339h16.969c.187 0 .339.152.339.339 0 .187-.152.339-.339.339H.339z" transform="translate(-191 -157) translate(35 106) translate(156 51)"/>
                </g>
            </g>
        </g>
    </g>
</svg>
