<?xml version="1.0" encoding="UTF-8"?>
<svg width="30px" height="30px" viewBox="0 0 20 20" version="1.1" xmlns="http://www.w3.org/2000/svg" xmlns:xlink="http://www.w3.org/1999/xlink">
    <title>Group</title>
    <g id="symbols" stroke="none" stroke-width="1" fill="none" fill-rule="evenodd">
        <g id="select_product_icon_active" transform="translate(-1.000000, -1.000000)">
            <g id="Group" transform="translate(7.000000, 1.000000)">
                <rect id="Rectangle" fill="#FFB800" x="1.5" y="5.5" width="10" height="7"></rect>
                <path d="M0.749781325,3.38172934 C0.61161956,3.38172934 0.499617319,3.49819487 0.499617319,3.64186237 L0.499617319,4.68165544 C0.499617319,4.82532294 0.61161956,4.94178846 0.749781325,4.94178846 L12.2502187,4.94178846 C12.3883804,4.94178846 12.5003827,4.82532294 12.5003827,4.68165544 L12.5003827,3.64186237 C12.5003827,3.49819487 12.3883804,3.38172934 12.2502187,3.38172934 L0.749781325,3.38172934 Z M6.24983599,5.46131549 L1.74972666,5.46131549 L1.74972666,8.84082772 L6.24983599,8.84082772 L6.24983599,5.46131549 Z M6.74732123,5.46131549 L6.74732123,8.84082772 L11.2502733,8.84082772 L11.2502733,5.46131549 L6.74732123,5.46131549 Z M6.24983599,12.481951 L6.24983599,9.36109376 L1.74972666,9.36109376 L1.74972666,12.221079 C1.74972666,12.3647465 1.8617289,12.481212 1.99989066,12.481212 L6.24983599,12.481951 Z M6.74732123,12.481951 L10.9972666,12.481951 C11.1354283,12.481951 11.2474306,12.3654855 11.2474306,12.221818 L11.2474306,9.36183277 L6.75158539,9.36183277 L6.74732123,12.481951 Z M11.7477586,5.46131549 L11.7477586,12.22034 C11.7477586,12.6509343 11.41207,13 10.9979773,13 L1.99989066,13 C1.58579787,13 1.25010934,12.6509343 1.25010934,12.22034 L1.25010934,5.46131549 L0.752624098,5.46131549 C0.553277636,5.46210143 0.361836696,5.380306 0.220609983,5.23400611 C0.0793832704,5.08770621 0,4.88894733 0,4.68165544 L0,3.64186237 C0,3.21126801 0.335688534,2.86220232 0.749781325,2.86220232 L12.2502187,2.86220232 C12.6643115,2.86220232 13,3.21126801 13,3.64186237 L13,4.68165544 C13,5.11224979 12.6643115,5.46131549 12.2502187,5.46131549 L11.7477586,5.46131549 Z M7.4302974,1.12404077 C7.3652371,1.19865626 7.26460116,1.22751298 7.17195856,1.1981178 C7.07931596,1.16872261 7.01131699,1.08635861 6.99740089,0.986684168 C6.98348479,0.887009729 7.02615265,0.787938955 7.10693199,0.732363205 L7.69751804,0.195099835 C7.83332942,0.071536898 8.00744109,0.00305276305 8.18789635,0.00221711175 L10.3761207,0.00221711175 C10.9974561,0.00221711175 11.501148,0.525981087 11.501148,1.17207669 C11.501148,1.8181723 10.9974561,2.34193627 10.3761207,2.34193627 L8.49989066,2.34193627 C8.37276321,2.32778402 8.27635632,2.21623014 8.27635632,2.08328128 C8.27635632,1.95033242 8.37276321,1.83877854 8.49989066,1.82462629 L10.3761207,1.82462629 C10.7213289,1.82462629 11.0011754,1.53362792 11.0011754,1.17466324 C11.0011754,0.815698565 10.7213289,0.524700197 10.3761207,0.524700197 L8.18789635,0.524700197 C8.12750363,0.524822952 8.0691923,0.547659521 8.02372622,0.588994438 L7.4302974,1.12404077 Z M4.74743057,1.82240925 C4.84264717,1.81180942 4.93532827,1.85866087 4.98612597,1.94307276 C5.03692367,2.02748465 5.03692367,2.13464383 4.98612597,2.21905572 C4.93532827,2.3034676 4.84264717,2.35031906 4.74743057,2.33971923 L2.87475399,2.33971923 C2.25341855,2.33971923 1.74972666,1.81595526 1.74972666,1.16985965 C1.74972666,0.523764044 2.25341855,3.44565643e-08 2.87475399,3.44565643e-08 L4.56265034,3.44565643e-08 C4.74432977,-5.61030473e-05 4.91984897,0.0684849878 5.05658211,0.192882792 L6.91575552,1.88374743 C6.98304067,1.94500108 7.01378861,2.03892845 6.99641688,2.13014801 C6.97904515,2.22136757 6.91619293,2.29602089 6.83153605,2.32598679 C6.74687918,2.35595269 6.65327903,2.33667864 6.58599388,2.27542499 L4.72682047,0.586038381 C4.68135439,0.544703464 4.62304306,0.521866895 4.56265034,0.52174414 L2.87475399,0.52174414 C2.52954583,0.52174414 2.24969932,0.812742508 2.24969932,1.17170719 C2.24969932,1.53067186 2.52954583,1.82167023 2.87475399,1.82167023 L4.74743057,1.82240925 Z" id="Path_14560" fill="#000000" fill-rule="nonzero"></path>
            </g>
        </g>
    </g>
</svg>
