<?xml version="1.0" encoding="UTF-8"?>
<svg width="30px" height="30px" viewBox="0 0 20 20" version="1.1" xmlns="http://www.w3.org/2000/svg" xmlns:xlink="http://www.w3.org/1999/xlink">
    <title>Path_14560</title>
    <g id="Stores" stroke="none" stroke-width="1" fill="none" fill-rule="evenodd">
        <g id="11.3" transform="translate(-320.000000, -375.000000)" fill="#000000" fill-rule="nonzero">
            <g id="Browse-by-Foods" transform="translate(34.000000, 375.000000)">
                <g id="Path_14560" transform="translate(292.000000, 0.000000)">
                    <path d="M1.51647715,3.79749877 C1.39673695,3.79749877 1.29966834,3.89843555 1.29966834,4.02294738 L1.29966834,4.92410138 C1.29966834,5.04861321 1.39673695,5.14955 1.51647715,5.14955 L11.4835229,5.14955 C11.603263,5.14955 11.7003317,5.04861321 11.7003317,4.92410138 L11.7003317,4.02294738 C11.7003317,3.89843555 11.603263,3.79749877 11.4835229,3.79749877 L1.51647715,3.79749877 Z M6.28319119,5.59980675 L2.38309644,5.59980675 L2.38309644,8.52871736 L6.28319119,8.52871736 L6.28319119,5.59980675 Z M6.71434507,5.59980675 L6.71434507,8.52871736 L10.6169036,8.52871736 L10.6169036,5.59980675 L6.71434507,5.59980675 Z M6.28319119,11.6843575 L6.28319119,8.97961459 L2.38309644,8.97961459 L2.38309644,11.4582684 C2.38309644,11.5827803 2.48016504,11.6837171 2.59990524,11.6837171 L6.28319119,11.6843575 Z M6.71434507,11.6843575 L10.397631,11.6843575 C10.5173712,11.6843575 10.6144398,11.5834207 10.6144398,11.4589089 L10.6144398,8.98025507 L6.71804067,8.98025507 L6.71434507,11.6843575 Z M11.0480574,5.59980675 L11.0480574,11.457628 C11.0480574,11.8308097 10.7571274,12.1333333 10.398247,12.1333333 L2.59990524,12.1333333 C2.24102482,12.1333333 1.95009476,11.8308097 1.95009476,11.457628 L1.95009476,5.59980675 L1.51894088,5.59980675 C1.34617395,5.6004879 1.18025847,5.52959853 1.05786199,5.40280529 C0.935465501,5.27601205 0.866666667,5.10375435 0.866666667,4.92410138 L0.866666667,4.02294738 C0.866666667,3.64976561 1.15759673,3.34724201 1.51647715,3.34724201 L11.4835229,3.34724201 C11.8424033,3.34724201 12.1333333,3.64976561 12.1333333,4.02294738 L12.1333333,4.92410138 C12.1333333,5.29728315 11.8424033,5.59980675 11.4835229,5.59980675 L11.0480574,5.59980675 Z M7.30625774,1.84083533 C7.24987215,1.90550209 7.16265434,1.93051125 7.08236408,1.90503542 C7.00207383,1.8795596 6.94314139,1.80817746 6.93108077,1.72179295 C6.91902015,1.63540843 6.95599896,1.54954709 7.02600773,1.50138144 L7.53784897,1.03575319 C7.65555216,0.928665312 7.80644895,0.869312395 7.9628435,0.868588164 L9.85930461,0.868588164 C10.3977953,0.868588164 10.8343283,1.32251694 10.8343283,1.88246647 C10.8343283,2.44241599 10.3977953,2.89634477 9.85930461,2.89634477 L8.23323857,2.89634477 C8.12306145,2.88407949 8.03950881,2.78739945 8.03950881,2.67217711 C8.03950881,2.55695477 8.12306145,2.46027473 8.23323857,2.44800945 L9.85930461,2.44800945 C10.158485,2.44800945 10.4010187,2.19581086 10.4010187,1.88470814 C10.4010187,1.57360542 10.158485,1.32140684 9.85930461,1.32140684 L7.9628435,1.32140684 C7.91050314,1.32151322 7.85996666,1.34130492 7.82056272,1.37712851 L7.30625774,1.84083533 Z M4.98110649,2.44608801 C5.06362755,2.4369015 5.14395116,2.47750609 5.18797584,2.55066306 C5.23200051,2.62382003 5.23200051,2.71669132 5.18797584,2.78984829 C5.14395116,2.86300526 5.06362755,2.90360985 4.98110649,2.89442333 L3.35812013,2.89442333 C2.81962941,2.89442333 2.38309644,2.44049456 2.38309644,1.88054503 C2.38309644,1.3205955 2.81962941,0.866666697 3.35812013,0.866666697 L4.82096363,0.866666697 C4.97841913,0.866618044 5.13053578,0.926020323 5.24903783,1.03383175 L6.86032145,2.49924777 C6.91863525,2.55233427 6.94528346,2.63373799 6.93022796,2.71279494 C6.91517246,2.79185189 6.86070054,2.85655144 6.78733125,2.88252188 C6.71396195,2.90849233 6.63284182,2.89178816 6.57452803,2.83870166 L4.96324441,1.3745666 C4.92384047,1.338743 4.87330398,1.31895131 4.82096363,1.31884492 L3.35812013,1.31884492 C3.05893972,1.31884492 2.81640608,1.57104351 2.81640608,1.88214623 C2.81640608,2.19324895 3.05893972,2.44544753 3.35812013,2.44544753 L4.98110649,2.44608801 Z"></path>
                </g>
            </g>
        </g>
    </g>
</svg>
