<svg xmlns="http://www.w3.org/2000/svg" width="18" height="17" viewBox="0 0 18 17">
    <g fill="none" fill-rule="evenodd">
        <g fill="#262626" fill-rule="nonzero">
            <g>
                <path d="M.493 3.756h2.642c.14.528.41.997.876 1.29 1.043.658 3.083.684 3.62-.687.085-.217.156-.456.21-.704l9.666-.15c.656-.01.658-1.113 0-1.102L7.96 2.55c-.003-.323-.037-.64-.118-.928C7.643.91 7.101.54 6.507.267c-.033-.02-.07-.037-.11-.05-.042-.019-.082-.03-.12-.036-.912-.256-2.396-.15-2.97.706-.312.466-.353 1.15-.32 1.767H.493c-.657 0-.658 1.102 0 1.102zm4.05-2.448c.474-.159 1.104-.19 1.583-.029.588.258.787.609.797 1.32.007.437-.068 1.412-.504 1.656-.27.151-.779.078-1.071.057-.527-.036-.987-.176-1.201-.745-.245-.651-.328-2.017.396-2.26zm12.964 12.244l-9.56.15c-.017-.216-.05-.426-.105-.622-.199-.713-.741-1.082-1.336-1.355-.032-.02-.069-.038-.109-.051-.042-.019-.082-.03-.12-.036-.912-.256-2.396-.15-2.97.706-.261.39-.333.932-.33 1.46H.494c-.657 0-.658 1.101 0 1.101H3.07c.112.652.386 1.249.941 1.599 1.043.657 3.083.683 3.62-.688.12-.306.213-.653.27-1.013l9.606-.15c.656-.01.658-1.111 0-1.1zm-11.088 2.16c-.27.152-.779.078-1.071.058-.527-.037-.987-.177-1.201-.746-.245-.65-.328-2.017.396-2.259.474-.158 1.104-.19 1.583-.029.588.258.787.61.797 1.321.007.437-.068 1.412-.504 1.656zm11.088-7.811H15.12c-.02-.19-.049-.376-.097-.55-.2-.713-.742-1.081-1.336-1.355-.033-.02-.069-.037-.11-.05-.041-.02-.081-.03-.12-.037-.911-.256-2.395-.15-2.97.706-.215.322-.3.749-.322 1.185L.493 7.65c-.657-.011-.657 1.09 0 1.1l9.72.152c0 .016.002.032.004.047.084.738.356 1.435.975 1.826 1.042.657 3.083.683 3.62-.688.128-.326.223-.7.278-1.085h2.417c.657 0 .658-1.101 0-1.101zm-3.908 2.083c-.27.151-.778.077-1.07.057-.527-.037-.987-.177-1.201-.745-.245-.651-.328-2.018.396-2.26.474-.158 1.104-.189 1.582-.028.588.257.788.608.798 1.32.006.437-.068 1.412-.505 1.656z" transform="translate(-319 -112) translate(319 112)"/>
            </g>
        </g>
    </g>
</svg>
