<?xml version="1.0" encoding="UTF-8"?>
<svg width="18px" height="18px" viewBox="0 0 18 18" version="1.1" xmlns="http://www.w3.org/2000/svg" xmlns:xlink="http://www.w3.org/1999/xlink">
    <!-- Generator: Sketch 64 (93537) - https://sketch.com -->
    <title>ic_marker@3x</title>
    <desc>Created with Sketch.</desc>
    <defs>
        <path d="M8.09621657,15.6988421 C4.05947972,12.1092632 2.02737446,9.13831579 2.02737446,6.74052632 C2.02737446,3.01783643 5.04521089,0 8.76790078,0 C12.4905907,0 15.5084271,3.01783643 15.5084271,6.74052632 C15.5084271,9.13926316 13.4763218,12.1092632 9.43958499,15.6988421 C9.05639233,16.0389937 8.47940923,16.0389937 8.09621657,15.6988421 Z M8.99147972,15.1948421 C12.895585,11.7236842 14.8348481,8.88915789 14.8348481,6.73957895 C14.8348481,3.39098931 12.1202799,0.676421053 8.77169025,0.676421053 C5.42310061,0.676421053 2.70853236,3.39098931 2.70853236,6.73957895 C2.70853236,8.88915789 4.64684814,11.7227368 8.55095341,15.1948421 C8.6785851,15.3078527 8.87047961,15.3078527 8.9981113,15.1948421 L8.99147972,15.1948421 Z M10.8739008,8.92326316 L10.8739008,8.92326316 C11.8668505,7.96523754 12.0876293,6.45755606 11.4110587,5.25505263 C10.7359227,4.05278989 9.33450309,3.45757586 8.00053236,3.80652632 C6.66486803,4.15553532 5.73367021,5.36285997 5.73537446,6.74336842 L5.73537446,6.74336842 C5.73473506,7.52956807 6.04059828,8.28505021 6.58800604,8.84936842 C6.71572851,8.98281241 6.71192188,9.19429161 6.57947972,9.32305263 C6.44583377,9.45025755 6.23477699,9.44645853 6.10579551,9.31452632 C5.43097084,8.61856871 5.05670033,7.68527416 5.06369025,6.71589474 C5.06864132,5.68941603 5.50040088,4.71126441 6.25547972,4.01589474 C6.94561085,3.37650805 7.85365837,3.02447022 8.79442709,3.03157895 C9.8209058,3.03653002 10.7990574,3.46828957 11.4944271,4.22336842 C12.1338138,4.91349955 12.4858516,5.82154707 12.4787429,6.76231579 C12.4739136,7.75246636 12.0718569,8.69924503 11.3627429,9.39031579 C10.6707093,10.0687247 9.73983888,10.4480816 8.77074288,10.4466357 C8.58447758,10.4466357 8.43347972,10.2956337 8.43347972,10.1093684 C8.43347972,9.92310312 8.58447758,9.77210526 8.77074288,9.77210526 C9.55690366,9.77254469 10.3123135,9.46671075 10.8767429,8.91947368 L10.8739008,8.92326316 Z M0.168637618,16.8517895 L17.3586376,16.8517895 C17.4517703,16.8517895 17.5272692,16.9272884 17.5272692,17.0204211 L17.5272692,17.3576842 C17.5272692,17.4024081 17.5095027,17.4453002 17.4778782,17.4769247 C17.4462536,17.5085493 17.4033615,17.5263158 17.3586376,17.5263158 L0.168637618,17.5263158 C0.123913743,17.5263158 0.0810216411,17.5085493 0.0493970855,17.4769247 C0.0177725299,17.4453002 2.98628787e-06,17.4024081 2.98628787e-06,17.3576842 L2.98628787e-06,17.0204211 C-0.000268889272,16.9747001 0.0180333983,16.9308273 0.0507188101,16.8988563 C0.083404222,16.8668853 0.127670764,16.849557 0.173374461,16.8508421 L0.168637618,16.8517895 Z" id="path-1"></path>
    </defs>
    <g id="Food-Discover-(categories-with-listing)" stroke="none" stroke-width="1" fill="none" fill-rule="evenodd">
        <g id="10.3" transform="translate(-319.000000, -103.000000)">
            <g id="General-title" transform="translate(36.000000, 99.000000)">
                <g id="ic_marker" transform="translate(283.000000, 4.000000)">
                    <mask id="mask-2" fill="white">
                        <use xlink:href="#path-1"></use>
                    </mask>
                    <use id="Path_21500" fill="#000000" fill-rule="evenodd" xlink:href="#path-1"></use>
                </g>
            </g>
        </g>
    </g>
</svg>