<?xml version="1.0" encoding="UTF-8"?>
<svg width="10px" height="14px" viewBox="0 0 10 14" version="1.1" xmlns="http://www.w3.org/2000/svg" xmlns:xlink="http://www.w3.org/1999/xlink">
    <title>delete icon</title>
    <g id="Profile" stroke="none" stroke-width="1" fill="none" fill-rule="evenodd">
        <g id="3.4" transform="translate(-319.000000, -551.000000)" fill="#FF0D00">
            <g id="signature-field" transform="translate(36.000000, 497.000000)">
                <g id="delete-icon" transform="translate(283.000000, 54.000000)">
                    <path d="M9.32113821,3.35084403 L7.56097561,2.71703314 L7.78455285,2.11531394 C7.96764234,1.61581581 7.70807006,1.06410602 7.20325203,0.879783854 L4.91056911,0.0574342838 C4.40324943,-0.122842012 3.84367306,0.135329817 3.65853659,0.635084714 L3.43902439,1.23680391 L1.67886179,0.607004484 C1.57381894,0.567032709 1.46217532,0.546630467 1.3495935,0.546832565 C0.937251121,0.548541466 0.569364994,0.802827434 0.426829268,1.18465491 L0.182926829,1.89869503 C0.155573693,1.98055936 0.198652286,2.06912352 0.280487805,2.09926809 L7.94308943,4.85113056 L0.162601626,4.85113056 C0.0727992277,4.85113056 0,4.92297026 0,5.01158901 L0,13.0345116 C0.00222731268,13.5653111 0.43772065,13.9950644 0.975609756,13.9972624 L7.64227642,13.9972624 C8.18016553,13.9950644 8.61565887,13.5653111 8.61788618,13.0345116 L8.61788618,5.0958297 L9.45121951,5.39267784 C9.46801642,5.39917676 9.48606534,5.40191692 9.50406504,5.40070076 C9.52940437,5.40120065 9.55449587,5.39569826 9.57723577,5.38465491 C9.61619508,5.3664428 9.64566986,5.33299356 9.65853659,5.2923913 L9.90243902,4.58236265 C10.0852681,4.08393684 9.82541977,3.53343354 9.32113821,3.35084403 L9.32113821,3.35084403 Z M8.29268293,13.0345116 C8.29268293,13.3889867 8.00148602,13.6763455 7.64227642,13.6763455 L0.975609756,13.6763455 C0.616400163,13.6763455 0.325203252,13.3889867 0.325203252,13.0345116 L0.325203252,5.17204746 L8.29268293,5.17204746 L8.29268293,13.0345116 Z M3.96341463,0.743394169 C4.08917563,0.410931745 4.46194971,0.239501503 4.80081301,0.358293883 L7.08943089,1.18465491 C7.25173076,1.24258077 7.38404565,1.36178826 7.45723956,1.51602765 C7.53043348,1.67026705 7.53850429,1.84689025 7.4796748,2.00700448 L7.25609756,2.60872368 L3.74390244,1.34511337 L3.96341463,0.743394169 Z M9.20731707,3.65170362 C9.54583757,3.77407445 9.72032475,4.14355979 9.59756098,4.47806466 L9.40650407,5.03565778 L0.540650407,1.85055749 L0.735772358,1.29296437 C0.829638877,1.03812396 1.07481959,0.868278898 1.3495935,0.86774947 C1.42447644,0.869363117 1.49860291,0.882909311 1.56910569,0.907864083 L9.20731707,3.65170362 Z" id="Shape"></path>
                    <path d="M6.42276423,12.3926778 C6.51256663,12.3926778 6.58536585,12.3208381 6.58536585,12.2322194 L6.58536585,6.61617354 C6.58536585,6.52755478 6.51256663,6.45571509 6.42276423,6.45571509 C6.33296183,6.45571509 6.2601626,6.52755478 6.2601626,6.61617354 L6.2601626,12.2322194 C6.2601626,12.3208381 6.33296183,12.3926778 6.42276423,12.3926778 Z" id="Path"></path>
                    <path d="M4.30894309,12.3926778 C4.39874549,12.3926778 4.47154472,12.3208381 4.47154472,12.2322194 L4.47154472,6.61617354 C4.47154472,6.52755478 4.39874549,6.45571509 4.30894309,6.45571509 C4.21914069,6.45571509 4.14634146,6.52755478 4.14634146,6.61617354 L4.14634146,12.2322194 C4.14634146,12.3208381 4.21914069,12.3926778 4.30894309,12.3926778 Z" id="Path"></path>
                    <path d="M2.19512195,12.3926778 C2.28492435,12.3926778 2.35772358,12.3208381 2.35772358,12.2322194 L2.35772358,6.61617354 C2.35772358,6.52755478 2.28492435,6.45571509 2.19512195,6.45571509 C2.10531955,6.45571509 2.03252033,6.52755478 2.03252033,6.61617354 L2.03252033,12.2322194 C2.03252033,12.3208381 2.10531955,12.3926778 2.19512195,12.3926778 Z" id="Path"></path>
                </g>
            </g>
        </g>
    </g>
</svg>