<?xml version="1.0" encoding="UTF-8"?>
<svg width="328px" height="216px" viewBox="0 0 328 216" version="1.1" xmlns="http://www.w3.org/2000/svg" xmlns:xlink="http://www.w3.org/1999/xlink">
    <title>Shape</title>
    <g id="symbols" stroke="none" stroke-width="1" fill="none" fill-rule="evenodd">
        <g id="envelope-icon" fill="#000000" fill-rule="nonzero">
            <path d="M324,0 L4,0 C1.790861,0 0,1.790861 0,4 L0,212 C0,214.209139 1.790861,216 4,216 L324,216 C326.209139,216 328,214.209139 328,212 L328,4 C328,1.790861 326.209139,0 324,0 Z M8,12.3 L118.2,101.2 L118.1,101.2 L8,202.7 L8,12.3 Z M164,127.9 L15.3,8 L312.7,8 L164,127.9 Z M123.6,107.1 C123.888556,106.808944 124.125292,106.47075 124.3,106.1 L161.5,136.1 L161.7,136.1 L162.2,136.5 L162.5,136.5 L163,136.7 L165,136.7 L165.6,136.5 L165.8,136.5 C166.006003,136.425072 166.181679,136.284531 166.3,136.1 L166.5,136.1 L203.7,106.1 C203.875321,106.497138 204.151033,106.841779 204.5,107.1 L314,208 L14.1,208 L123.6,107.1 Z M209.9,101.2 L209.8,101.2 L320,12.3 L320,202.7 L209.9,101.2 Z" id="Shape"></path>
        </g>
    </g>
</svg>