<svg xmlns="http://www.w3.org/2000/svg" width="21" height="21" viewBox="0 0 21 21">
    <g fill="none" fill-rule="evenodd" opacity=".5">
        <g fill="#000" fill-rule="nonzero">
            <g>
                <path d="M20.88.076C20.831.027 20.767 0 20.7 0c-.067 0-.131.027-.178.076L15.66 4.96c-1.362-.647-3.067-1.12-5.123-1.12h-.197c-3.735.057-6.294 1.651-7.776 2.983C.878 8.33-.006 10.02 0 10.653c.006.634.93 2.266 2.622 3.713.68.577 1.423 1.075 2.214 1.485L.16 20.564c-.048.047-.075.111-.075.179 0 .068.027.132.075.18.046.049.11.077.178.076.068 0 .132-.028.179-.077l4.804-4.834c1.576.715 3.286 1.08 5.015 1.07h.197c3.735-.058 6.294-1.652 7.783-2.984 1.68-1.505 2.564-3.195 2.558-3.829-.007-.633-.93-2.266-2.622-3.713-.648-.552-1.355-1.03-2.106-1.428l4.734-4.77c.048-.047.076-.111.076-.179 0-.067-.028-.132-.076-.18zm-17.927 13.9C1.228 12.503.516 11.018.509 10.646c-.006-.371.675-1.908 2.393-3.438C4.32 5.934 6.77 4.404 10.347 4.353h.191c1.884 0 3.462.416 4.741.992l-2.5 2.523c-1.389-1.255-3.51-1.199-4.83.128-1.32 1.327-1.38 3.46-.134 4.86l-2.597 2.611c-.813-.402-1.574-.903-2.265-1.491zm5.224-1.48c-1.065-1.194-1.016-3.017.11-4.153 1.128-1.135 2.94-1.186 4.129-.117l-4.239 4.27zm4.589-3.898c.971 1.201.882 2.948-.207 4.043-1.089 1.096-2.824 1.185-4.019.208l4.226-4.251zm5.154-1.575c1.725 1.472 2.437 2.957 2.444 3.329.006.371-.675 1.908-2.393 3.438-1.42 1.274-3.87 2.798-7.445 2.855h-.191c-1.591.01-3.166-.313-4.627-.947l2.47-2.484c1.394 1.189 3.462 1.103 4.754-.197 1.293-1.3 1.378-3.381.196-4.784l2.635-2.651c.773.393 1.497.877 2.157 1.44z" transform="translate(-293 -407) translate(36 390) translate(257 17)"/>
            </g>
        </g>
    </g>
</svg>
