<svg xmlns="http://www.w3.org/2000/svg" width="21" height="13" viewBox="0 0 21 13">
    <g fill="none" fill-rule="evenodd" opacity=".5">
        <g fill="#000" fill-rule="nonzero">
            <g>
                <g>
                    <path d="M10.494 3.05c-1.433 0-2.724.843-3.272 2.135-.548 1.292-.244 2.78.77 3.767 1.014.988 2.538 1.283 3.861.746 1.323-.537 2.184-1.8 2.181-3.198 0-.916-.373-1.795-1.037-2.442-.664-.647-1.565-1.01-2.503-1.008zm0 6.406c-1.673 0-3.029-1.323-3.029-2.956s1.356-2.956 3.029-2.956c1.672 0 3.028 1.323 3.028 2.956s-1.356 2.956-3.028 2.956z" transform="translate(-293 -346) translate(36 325) translate(257 21)"/>
                    <path d="M18.362 2.725C16.858 1.481 14.29 0 10.602 0h-.198C6.646.056 4.072 1.613 2.58 2.913.884 4.38-.006 6.03 0 6.65c.006.619.935 2.213 2.638 3.625C4.142 11.519 6.71 13 10.398 13h.198c3.758-.056 6.332-1.613 7.83-2.912 1.69-1.47 2.58-3.12 2.574-3.738-.006-.619-.935-2.212-2.638-3.625zm-.281 6.988c-1.428 1.243-3.893 2.73-7.491 2.787h-.192c-3.535 0-5.987-1.419-7.427-2.606C1.236 8.456.519 7.006.512 6.644.506 6.28 1.191 4.78 2.92 3.287 4.347 2.045 6.812.55 10.41.5h.193c3.534 0 5.986 1.419 7.426 2.606 1.735 1.438 2.452 2.888 2.459 3.25.006.363-.679 1.863-2.407 3.357z" transform="translate(-293 -346) translate(36 325) translate(257 21)"/>
                </g>
            </g>
        </g>
    </g>
</svg>
