<?xml version="1.0" encoding="UTF-8"?>
<svg width="26px" height="25px" viewBox="0 0 26 25" version="1.1" xmlns="http://www.w3.org/2000/svg" xmlns:xlink="http://www.w3.org/1999/xlink">
    <!-- Generator: Sketch 64 (93537) - https://sketch.com -->
    <title>filed@3x</title>
    <desc>Created with Sketch.</desc>
    <g id="Order-History" stroke="none" stroke-width="1" fill="none" fill-rule="evenodd">
        <g id="5.0" transform="translate(-288.000000, -463.000000)" fill="#FF0700">
            <g id="Orders" transform="translate(36.000000, 213.000000)">
                <g id="Order-3" transform="translate(0.000000, 206.000000)">
                    <g id="filed" transform="translate(252.500000, 44.000000)">
                        <g id="Path_1776">
                            <path d="M12.5,0 C5.59644063,0 0,5.59644063 0,12.5 C0,19.4035594 5.59644063,25 12.5,25 C19.4035594,25 25,19.4035594 25,12.5 C25,9.18479388 23.6830395,6.00536997 21.3388348,3.66116524 C18.99463,1.3169605 15.8152061,0 12.5,0 Z M17.1077273,16 C17.3465758,16.2408202 17.3465758,16.6291798 17.1077273,16.87 L16.875,17.1022727 C16.6342819,17.3413691 16.2457181,17.3413691 16.005,17.1022727 L12.505,13.6022727 L9.005,17.1022727 C8.76428195,17.3413691 8.37571805,17.3413691 8.135,17.1022727 L7.90227273,16.8695455 C7.66317639,16.6288274 7.66317639,16.2402635 7.90227273,15.9995455 L11.4022727,12.4995455 L7.90227273,8.99954545 C7.66342424,8.75872528 7.66342424,8.37036563 7.90227273,8.12954545 L8.135,7.89727273 C8.37571805,7.65817639 8.76428195,7.65817639 9.005,7.89727273 L12.505,11.3972727 L16.005,7.89727273 C16.2457181,7.65817639 16.6342819,7.65817639 16.875,7.89727273 L17.1077273,8.13 C17.3465758,8.37082017 17.3465758,8.75917983 17.1077273,9 L13.6077273,12.5 L17.1077273,16 Z" fill-rule="nonzero"></path>
                        </g>
                    </g>
                </g>
            </g>
        </g>
    </g>
</svg>