<svg xmlns="http://www.w3.org/2000/svg" xmlns:xlink="http://www.w3.org/1999/xlink" width="18" height="14" viewBox="0 0 18 14">
    <defs>
        <path id="f771096w1a" d="M9 13c.008.266-.094.524-.282.713-.188.19-.445.293-.711.287H1c-.267.006-.525-.097-.714-.286-.19-.189-.292-.447-.286-.714-.007-.266.094-.523.282-.712.187-.189.443-.293.709-.288H8c.267-.005.524.098.713.287.189.189.292.446.287.713zm8-7c.552 0 1 .448 1 1s-.448 1-1 1H1c-.552 0-1-.448-1-1s.448-1 1-1h16zm-3-5c0 .271-.11.531-.305.72-.195.188-.459.29-.73.28H1C.57 2 0 2 0 1c0-.944.509-1 .927-1h12.038c.271-.01.535.092.73.28C13.89.47 14 .73 14 1z"/>
    </defs>
    <g fill="none" fill-rule="evenodd">
        <g>
            <g>
                <g transform="translate(-319 -56) translate(0 -1) translate(319 57)">
                    <use fill="#000" xlink:href="#f771096w1a"/>
                </g>
            </g>
        </g>
    </g>
</svg>
