<?xml version="1.0" encoding="UTF-8"?>
<svg width="8px" height="8px" viewBox="0 0 8 8" version="1.1" xmlns="http://www.w3.org/2000/svg" xmlns:xlink="http://www.w3.org/1999/xlink">
    <!-- Generator: Sketch 64 (93537) - https://sketch.com -->
    <title>Path_11384@3x</title>
    <desc>Created with Sketch.</desc>
    <defs>
        <path d="M46.813,21.779 L46.813,21.779 C48.4510766,21.779 49.779,20.4510766 49.779,18.813 C49.779,17.1749234 48.4510766,15.847 46.813,15.847 C45.1749234,15.847 43.847,17.1749234 43.847,18.813 C43.847,20.4510766 45.1749234,21.779 46.813,21.779 Z M46.813,22.626 L46.813,22.626 C44.7073669,22.625448 43.000552,20.9186331 43,18.813 C43,16.7071382 44.7071382,15 46.813,15 C48.9188618,15 50.626,16.7071382 50.626,18.813 C50.626,20.9188618 48.9188618,22.626 46.813,22.626 L46.813,22.626 Z M46.389,18.988 L46.389,16.694 L47.236,16.694 L47.236,18.63 L48.383,19.784 L47.783,20.384 L46.389,18.988 Z" id="path-1"></path>
    </defs>
    <g id="messanger-/-do-not-need" stroke="none" stroke-width="1" fill="none" fill-rule="evenodd">
        <g id="Chat-with-shipper" transform="translate(-217.000000, -300.000000)">
            <g id="Shipper-message" transform="translate(37.000000, 267.000000)">
                <g id="Date" transform="translate(137.000000, 18.000000)">
                    <mask id="mask-2" fill="white">
                        <use xlink:href="#path-1"></use>
                    </mask>
                    <use id="Path_11384" fill-opacity="0.35" fill="#000000" xlink:href="#path-1"></use>
                </g>
            </g>
        </g>
    </g>
</svg>